<?xml version="1.0" encoding="utf-8" ?>
<svg baseProfile="full" height="200mm" version="1.1" viewBox="0,0,200,200" width="200mm" xmlns="http://www.w3.org/2000/svg" xmlns:ev="http://www.w3.org/2001/xml-events" xmlns:xlink="http://www.w3.org/1999/xlink"><defs /><rect fill="#1a1a1a" height="200" width="200" x="0" y="0" /><text alignment-baseline="middle" fill="#e1ed5e" style="dominant-baseline: central; font-size:9.0px; font-family:Arial;" text-anchor="middle" x="100.0" y="100.0">2024</text><line stroke="#e1ed5e" stroke-width="0.3" x1="100.0" x2="100.0" y1="15.0" y2="10.0" /><path d="M 100.0 14.0 a86.0,86.0 0 0,1 42.35913384403234,11.155469271406648" fill="none" id="id13" stroke="none" /><text fill="#e1ed5e" style="font-size:6.75px; font-family:Arial;" text-anchor="middle"><textPath startOffset="22.145653131862478" xlink:href="#id13">January</textPath></text><path d="M 100.72087961077811 79.0123766808444 l 1.8412455750994143 -53.60585594387545 a74.63746803069054,74.63746803069054 0 0,0 1.2801187275539698,0.05497380617304466 l -2.76119006325422 53.56634956927657" fill="#3effb4" stroke="none" /><path d="M 101.08105385017728 79.02784411241856 l 2.7002468059647726 -52.38406665898335 a73.45361543827016,73.45361543827016 0 0,0 1.2586999224643654,0.07572026170782083 l -3.5990910805616005 52.32999441945084" fill="#3cffa4" stroke="none" /><path d="M 101.80034050326958 79.07731436759882 l 4.8360642908973555 -56.20239764242832 a77.4100790513834,77.4100790513834 0 0,0 1.3229767223781985,0.12528727110292745 l -5.800140576660567 56.11109861582021" fill="#42ffda" stroke="none" /><path d="M 102.15924093988457 79.11130261209362 l 5.50903355918983 -53.29490229278861 a74.5788770053476,74.5788770053476 0 0,0 1.272330196664092,0.1425672523630399 l -6.423099657454719 53.19247927991861" fill="#3effb3" stroke="none" /><path d="M 102.87502721639298 79.19773525538626 l 5.017283936057905 -36.30256720411791 a57.64764008370146,57.64764008370146 0 0,0 0.9791174256581227,0.14389654381142641 l -5.63972646732371 36.211089587007606" fill="#9cff22" stroke="none" /><path d="M 103.23170211078529 79.25015418208739 l 8.221132656474005 -52.78556909720544 a74.42193675889328,74.42193675889328 0 0,0 1.2606455795952378,0.20743875039049206 l -9.126055739122314 52.63666434831928" fill="#3dffb1" stroke="none" /><path d="M 103.94208987418118 79.37332000966035 l 9.874505010094152 -51.6675827814617 a73.60270867240176,73.60270867240176 0 0,0 1.2389912471492923,0.2478329494034923 l -10.7599927427744 51.49046043539534" fill="#3cffa6" stroke="none" /><path d="M 104.29559338865022 79.4440306129975 l 8.564399064850868 -40.98374987267279 a62.86904208323646,62.86904208323646 0 0,0 1.0545161644223413,0.2298268899647588 l -9.266677645892344 40.83069152457431" fill="#54ff2b" stroke="none" /><path d="M 104.9986988182912 79.60360301121754 l 12.517957520834672 -51.07753844848377 a73.58910718437573,73.58910718437573 0 0,0 1.2243640250709515,0.3112285473347604 l -13.392926839131018 50.855124669313746" fill="#3cffa6" stroke="none" /><path d="M 105.3480935250658 79.69241777938227 l 12.04240310552441 -45.72696607736497 a68.28609625668449,68.28609625668449 0 0,0 1.1310083016970818,0.30826134199805905 l -12.825592808156186 45.51350424122277" fill="#34ff58" stroke="none" /><path d="M 106.04205211174951 79.88797359093562 l 8.024377824933605 -26.71054399175731 a48.889851197395956,48.889851197395956 0 0,0 0.8016989627302593,0.24836838796969052 l -8.481717420535496 26.56885901598097" fill="#ffdc14" stroke="none" /><path d="M 106.72888874123014 80.10723608172694 l 16.89385332886383 -49.9436755257722 a73.72355266217158,73.72355266217158 0 0,0 1.1953544831335499,0.4158063397104604 l -17.7487135840424 49.64631075349315" fill="#3cffa7" stroke="none" /><path d="M 107.40779381753099 80.34994680014964 l 16.721236258863012 -44.355065779009244 a68.40223203906069,68.40223203906069 0 0,0 1.0951775104231538,0.4236381881241951 l -17.48018603177969 44.06148770274701" fill="#34ff5a" stroke="none" /><path d="M 107.74402155503746 80.48000691201159 l 19.8767378248402 -50.102363764761144 a74.90112764473378,74.90112764473378 0 0,0 1.1910903537506796,0.48440607765408594 l -20.733882639781317 49.753770430527766" fill="#3effb8" stroke="none" /><path d="M 108.73861861582097 80.90454125486305 l 15.904796724410717 -34.75485120164404 a59.22122762148338,59.22122762148338 0 0,0 0.9207809141332803,0.43097196076829986 l -16.499066352415504 34.476703009305204" fill="#85ff25" stroke="none" /><path d="M 109.71004243097381 81.37971332152246 l 18.129288126325843 -34.76530041847112 a60.208381771681005,60.208381771681005 0 0,0 0.9123324030067398,0.4857656172741269 l -18.723409345119144 34.448964333474414" fill="#78ff26" stroke="none" /><path d="M 110.02825361518725 81.54914285379988 l 25.711993267916085 -47.307171610808965 a74.84305975354569,74.84305975354569 0 0,0 1.1235575982612163,0.623218459960256 l -26.520295054333403 46.858820235415564" fill="#3effb7" stroke="none" /><line stroke="#e1ed5e" stroke-width="0.3" x1="143.13028292997686" x2="145.6673583964461" y1="26.7553504044142" y2="22.446841604673864" /><path d="M 143.63769802327073 25.89364864446614 a86.0,86.0 0 0,1 29.32050498858742,28.57503671076993" fill="none" id="id14" stroke="none" /><text fill="#e1ed5e" style="font-size:6.75px; font-family:Arial;" text-anchor="middle"><textPath startOffset="20.669276256404974" xlink:href="#id14">February</textPath></text><path d="M 110.65571695917076 81.90426304109057 l 16.37245407192745 -27.80400637447873 a53.26639153685189,53.26639153685189 0 0,0 0.7839474666870109,0.470737929105315 l -16.847334295171894 27.51885444483749" fill="#ddff1b" stroke="none" /><path d="M 111.5731344415666 82.4767994020092 l 28.985691120547703 -43.88803072679098 a73.59590792838875,73.59590792838875 0 0,0 1.04822901153583,0.7052952599357385 l -29.734816420180533 43.38398579279812" fill="#3cffa6" stroke="none" /><path d="M 111.8722381534696 82.67804972795209 l 35.6167144604088 -51.965850816143735 a84.0,84.0 0 0,0 1.182419635304957,0.8254207367794932 l -36.50352918688752 51.34678526355911" fill="#4dd2ff" stroke="none" /><path d="M 115.8921839302757 86.27271002978787 l 18.213829991701132 -15.732672542752912 a45.067833062078584,45.067833062078584 0 0,0 0.5006938316350878,0.5898160746894056 l -18.48121838684333 15.417689685613954" fill="#ff9c0e" stroke="none" /><path d="M 116.1254893667686 86.54754324733833 l 21.521719657737272 -17.954183984968665 a49.02743548012091,49.02743548012091 0 0,0 0.5335893487406952,0.6508922450491404 l -21.826755825716592 17.58208945822103" fill="#ffde14" stroke="none" /><path d="M 117.42321728460499 88.27688183743584 l 27.354456923928282 -18.405299409043835 a53.97000697512206,53.97000697512206 0 0,0 0.5105962579635617,0.7731078125856223 l -27.66637762081257 17.93301171811915" fill="#d2ff1c" stroke="none" /><line stroke="#e1ed5e" stroke-width="0.3" x1="172.87174338648825" x2="177.1583165268699" y1="56.24261187166439" y2="53.66864786411523" /><path d="M 173.72905801456457 55.72781907015455 a86.0,86.0 0 0,1 12.242430191666344,42.057860355516425" fill="none" id="id15" stroke="none" /><text fill="#e1ed5e" style="font-size:6.75px; font-family:Arial;" text-anchor="middle"><textPath startOffset="22.145653131862474" xlink:href="#id15">March</textPath></text><path d="M 118.53625476483649 90.13048839642627 l 30.9845193221334 -16.497511329044755 a56.102824924436185,56.102824924436185 0 0,0 0.4453280106007084,0.8539751790260297 l -31.263155401709056 15.963189906914227" fill="#b2ff20" stroke="none" /><path d="M 118.70294669586156 90.45014215332178 l 34.45092472345528 -17.590887636353536 a59.682108811904214,59.682108811904214 0 0,0 0.4580746418099656,0.9164561356575155 l -34.74781927847698 16.99689964453227" fill="#7fff26" stroke="none" /><path d="M 119.58574465831526 92.42381321644754 l 16.32280916922819 -6.314013240535774 a38.50145315043014,38.50145315043014 0 0,0 0.23315254615669292,0.6184648288694601 l -16.428792399199324 6.032880131472155" fill="#ff2703" stroke="none" /><path d="M 119.94978838288452 93.4421083053983 l 41.79436601348081 -13.73863825022286 a64.9945361543827,64.9945361543827 0 0,0 0.33931878305767055,1.0629112550609396 l -42.02404951231574 13.019157961470532" fill="#38ff2e" stroke="none" /><path d="M 120.05942366710727 93.78553927170692 l 40.062713994992635 -12.41153120460626 a62.94123459660545,62.94123459660545 0 0,0 0.3108807845654725,1.0348210233229742 l -40.26987109956173 11.721972577692561" fill="#53ff2b" stroke="none" /><path d="M 120.16314734710363 94.1308016681162 l 31.414547892431234 -9.14431705096012 a53.71837944664032,53.71837944664032 0 0,0 0.2501268640762985,0.8876120004169253 l -31.566893248582115 8.603697126640183" fill="#d6ff1c" stroke="none" /><path d="M 120.35273937422433 94.82641323984039 l 50.79734674420072 -12.912486900896585 a73.41281097419204,73.41281097419204 0 0,0 0.29998737595654196,1.2240508648457271 l -51.01152164667356 12.038580211442763" fill="#3cffa3" stroke="none" /><path d="M 120.43855184770803 95.1765574152323 l 20.744210265000714 -4.895577138984057 a42.31405487096025,42.31405487096025 0 0,0 0.16077152295978797,0.7083889944976062 l -20.82519264951817 4.538753810547425" fill="#ff6c0a" stroke="none" /><path d="M 120.592083275326 95.88100663000786 l 52.98338854565209 -10.59816159546894 a75.03295745175541,75.03295745175541 0 0,0 0.2417980205616882,1.2651894176967162 l -53.157512858495934 9.68706961273891" fill="#3effba" stroke="none" /><path d="M 120.65975698304385 96.23510406497455 l 29.478598676589794 -5.371982662662864 a50.96407812136712,50.96407812136712 0 0,0 0.1494586691640201,0.8620378866423236 l -29.566472163246047 4.865151743099948" fill="#fffd18" stroke="none" /><path d="M 120.82617615685814 97.30363454192243 l 22.363565352348132 -2.8954112690377274 a43.55022087886539,43.55022087886539 0 0,0 0.08962617568168568,0.7422333059013296 l -22.40997361428948 2.5110842862129847" fill="#ff820c" stroke="none" /><path d="M 120.86939407059847 97.66154086499901 l 57.329834369131255 -6.423927519652411 a78.68861892583121,78.68861892583121 0 0,0 0.13889518297630737,1.3436848997430861 l -57.43166194458923 5.438838097626393" fill="#44ffea" stroke="none" /><path d="M 120.93736805541906 98.37931529534042 l 37.93094183567681 -2.9360947901234695 a59.044408277144846,59.044408277144846 0 0,0 0.06954879886329278,1.0112242716091147 l -37.97575459570517 2.284527094360021" fill="#88ff25" stroke="none" /><line stroke="#e1ed5e" stroke-width="0.3" x1="184.99686870605535" x2="189.99668451229388" y1="99.2704041080226" y2="99.22748670261217" /><path d="M 185.99683186730306 99.26182062694052 a86.0,86.0 0 0,1 -10.086455211305974,41.156179273409016" fill="none" id="id16" stroke="none" /><text fill="#e1ed5e" style="font-size:6.75px; font-family:Arial;" text-anchor="middle"><textPath startOffset="21.40746469413373" xlink:href="#id16">April</textPath></text><path d="M 120.99922638620191 99.81974689727618 l 28.1205636633508 -0.24138121840490853 a49.1215996279935,49.1215996279935 0 0,0 0.0,0.8432686422574674 l -28.1205636633508 -0.24138121840490512" fill="#ffe015" stroke="none" /><path d="M 120.86939407059847 102.33845913500097 l 41.69234547328814 4.671714272192647 a62.95326668216694,62.95326668216694 0 0,0 -0.12955756424487053,1.0729224858987838 l -41.60600582278361 -5.386730435014839" fill="#52ff2b" stroke="none" /><path d="M 120.82617615685814 102.69636545807757 l 37.4488293469249 4.848500710642378 a58.761392699372244,58.761392699372244 0 0,0 -0.13810461640793611,0.9992562075900949 l -37.36008021396176 -5.490645226432558" fill="#8cff24" stroke="none" /><path d="M 120.35273937422433 105.17358676015961 l 43.746863623880785 11.120281662411024 a66.13810741687979,66.13810741687979 0 0,0 -0.2891511419302978,1.0979539833052379 l -43.54952300114576 -11.869616150089065" fill="#30ff37" stroke="none" /><path d="M 120.26092885502905 105.52220625578681 l 14.894881707927453 4.059666244092513 a36.43821204371076,36.43821204371076 0 0,0 -0.16966587236858327,0.6020843260147427 l -14.82299734348429 -4.314758494010264" fill="#ff0000" stroke="none" /><path d="M 120.16314734710363 105.8691983318838 l 50.33419957949784 14.651551919107067 a73.423273657289,73.423273657289 0 0,0 -0.3626539114816463,1.207156924529986 l -50.07526934801257 -15.513446447227777" fill="#3cffa3" stroke="none" /><path d="M 119.94978838288452 106.5578916946017 l 55.651938154553136 18.293897459350482 a79.58160892815626,79.58160892815626 0 0,0 -0.4377540955204231,1.2941421996008364 l -55.329698637460346 -19.24654133342548" fill="#46fff6" stroke="none" /><path d="M 119.71291397450082 107.23885506374661 l 28.009728317606665 10.285560213388392 a50.83852592420368,50.83852592420368 0 0,0 -0.30786193226965786,0.8166403515431173 l -27.829035701522567 -10.764868845125669" fill="#fffb17" stroke="none" /><path d="M 119.58574465831526 107.57618678355244 l 49.457306742105935 19.1311487118036 a74.02853987444782,74.02853987444782 0 0,0 -0.4686405800586755,1.1812804004329795 l -49.121607487081135 -19.97733012945014" fill="#3dffac" stroke="none" /><path d="M 119.31412917781788 108.2440532568976 l 48.38844667873724 20.65415053225453 a73.61212508718904,73.61212508718904 0 0,0 -0.5060522254913816,1.1579465257477928 l -48.02676057122889 -21.48175912777817" fill="#3cffa6" stroke="none" /><path d="M 119.16976305983485 108.57439118712176 l 28.173954919224844 12.60185167713015 a51.86386886770519,51.86386886770519 0 0,0 -0.3704945734702853,0.8095975066574453 l -27.953475880899504 -13.083638166002283" fill="#f2ff19" stroke="none" /><path d="M 118.8641267826498 109.22738970284198 l 47.714987572572355 23.339791450264023 a74.11747268077193,74.11747268077193 0 0,0 -0.5688695561530418,1.1381201829144192 l -47.307298103207586 -24.15544348934219" fill="#3dffad" stroke="none" /><line stroke="#e1ed5e" stroke-width="0.3" x1="174.33088141563837" x2="178.70328620479359" y1="141.23008692659167" y2="143.65538615756765" /><path d="M 175.20536237346943 141.71514677278685 a86.0,86.0 0 0,1 -30.301960400862466,31.631185727798858" fill="none" id="id17" stroke="none" /><text fill="#e1ed5e" style="font-size:6.75px; font-family:Arial;" text-anchor="middle"><textPath startOffset="22.145653131862474" xlink:href="#id17">May</textPath></text><path d="M 115.41159269507618 114.26474011684316 l 19.629855212224196 18.16910092771259 a47.747849337363405,47.747849337363405 0 0,0 -0.5619334483509214,0.5967538489464052 l -19.315065930137017 -18.503396236603493" fill="#ffc912" stroke="none" /><path d="M 111.27062007382361 117.71928675628689 l 14.418360097430938 22.668056899118742 a47.86503138804929,47.86503138804929 0 0,0 -0.6970877892891284,0.435034336906397 l -14.027108179352094 -22.91222703286669" fill="#ffcb12" stroke="none" /><path d="M 110.96478420261333 117.91015095944535 l 16.742992757521236 27.348420384656105 a53.06655428970007,53.06655428970007 0 0,0 -0.7810063644434638,0.4689718817127938 l -16.271053636520335 -27.63180626690482" fill="#e0ff1b" stroke="none" /><line stroke="#e1ed5e" stroke-width="0.3" x1="143.1302829299769" x2="145.66735839644613" y1="173.24464959558577" y2="177.55315839532614" /><path d="M 143.63769802327073 174.10635135553383 a86.0,86.0 0 0,1 -40.68552437913181,11.842963189579606" fill="none" id="id18" stroke="none" /><text fill="#e1ed5e" style="font-size:6.75px; font-family:Arial;" text-anchor="middle"><textPath startOffset="21.407464694133747" xlink:href="#id18">June</textPath></text><path d="M 110.02825361518725 118.45085714620011 l 16.308194711853705 30.005241439559484 a55.15072076261335,55.15072076261335 0 0,0 -0.8356941030522045,0.44496003921775296 l -15.790711793014948 -30.280771946499804" fill="#c0ff1e" stroke="none" /><path d="M 109.71004243097381 118.62028667847754 l 17.00547496491061 32.61024050113778 a57.777900488258545,57.777900488258545 0 0,0 -0.8833767158724447,0.4510584454327686 l -16.443171027324585 -32.89735689824338" fill="#9aff23" stroke="none" /><path d="M 109.06512990194946 118.94263497670748 l 16.558909397820642 34.60175195810849 a59.35985817251802,59.35985817251802 0 0,0 -0.9229363636339923,0.4319808199696602 l -15.962484320315143 -34.88090900964868" fill="#83ff25" stroke="none" /><path d="M 108.73861861582097 119.09545874513695 l 15.475078557183071 33.81583945446978 a58.188560799814,58.188560799814 0 0,0 -0.9118607364923451,0.407863709032702 l -14.892304417835097 -34.076506914412334" fill="#94ff23" stroke="none" /><path d="M 107.407793817531 119.65005319985036 l 14.954851304664494 39.66951982884064 a63.39479190885841,63.39479190885841 0 0,0 -1.0215945385993743,0.37514366513250386 l -14.271667614410992 -39.92039434298187" fill="#4dff2c" stroke="none" /><path d="M 107.06938296918513 119.77432235084164 l 14.919211072187272 41.73168864208287 a65.31835619623345,65.31835619623345 0 0,0 -1.059072536396418,0.36840040428214343 l -14.200632763745832 -41.98164747893361" fill="#34ff2f" stroke="none" /><path d="M 106.72888874123015 119.89276391827305 l 12.162488190940069 35.95623520399051 a58.95756800744014,58.95756800744014 0 0,0 -0.9615060231493155,0.31606612774549525 l -11.54345943014302 -36.15972225313802" fill="#89ff24" stroke="none" /><path d="M 104.9986988182912 120.39639698878246 l 8.358629010972455 34.10605875391161 a56.115380144152525,56.115380144152525 0 0,0 -0.9375753606307975,0.22126523222351788 l -7.771921496601778 -34.24452012978136" fill="#b2ff20" stroke="none" /><path d="M 104.64783097203109 120.47920084513623 l 11.637793926397485 51.278267356794686 a73.58230644036271,73.58230644036271 0 0,0 -1.2342120857211218,0.26899077964688195 l -10.75581942405723 -51.47048959457529" fill="#3cffa5" stroke="none" /><path d="M 104.29559338865022 120.5559693870025 l 5.498614930310014 26.312862962545033 a47.88124854684958,47.88124854684958 0 0,0 -0.8060090304036668,0.16122437968015338 l -5.046109414375389 -26.40337673888805" fill="#ffcc13" stroke="none" /><path d="M 102.875027216393 120.80226474461374 l 7.180787992078107 51.956604805139904 a73.4504766333411,73.4504766333411 0 0,0 -1.250484494719658,0.16190025341321745 l -6.287825675467674 -52.07221665475352" fill="#3cffa4" stroke="none" /><path d="M 102.51750503828377 120.84855314841334 l 6.013326732882026 49.79897163373003 a71.16071843757265,71.16071843757265 0 0,0 -1.2140157444036355,0.13603299635494912 l -5.157575086877591 -49.894860390591944" fill="#38ff83" stroke="none" /><path d="M 101.80034050326958 120.92268563240118 l 3.4113154673380137 39.6446566560268 a60.79115322018136,60.79115322018136 0 0,0 -1.0404869195572592,0.08054026807291811 l -2.730259553005519 -39.697374691094765" fill="#70ff27" stroke="none" /><path d="M 101.44090949804482 120.95050786540614 l 3.63810863356526 52.897301076948196 a74.02226226458964,74.02226226458964 0 0,0 -1.2684442449449755,0.07630645595096763 l -2.7295200364878194 -52.95195951072385" fill="#3dffac" stroke="none" /><path d="M 101.08105385017728 120.97215588758144 l 1.3834092474409676 26.837769819603217 a47.873401534526856,47.873401534526856 0 0,0 -0.8210840945309186,0.035260883926572145 l -0.9224993923092195 -26.85756327195562" fill="#ffcb13" stroke="none" /><line stroke="#e1ed5e" stroke-width="0.3" x1="101.45913802915013" x2="101.54496967792366" y1="184.9874750549273" y2="189.98673829345242" /><path d="M 101.47630435890484 185.9873277026323 a86.0,86.0 0 0,1 -42.54439059252881,-10.42667462771756" fill="none" id="id19" stroke="none" /><text fill="#e1ed5e" style="font-size:6.75px; font-family:Arial;" text-anchor="middle"><textPath startOffset="22.145653131862474" xlink:href="#id19">July</textPath></text><path d="M 100.36049292484886 120.99690560180557 l 0.7747299123138484 45.124133414183575 a66.13078353871194,66.13078353871194 0 0,0 -1.1352228371626951,0.009744522722797912 l -5.526926960369563e-15 -45.13078353871194" fill="#30ff36" stroke="none" /><path d="M 99.63950707515114 120.99690560180557 l -0.9036959059470702 52.63575599400379 a73.6435131364799,73.6435131364799 0 0,0 -1.2638162685449346,-0.032551424012776255 l 1.8071254885627486 -52.61248685264096" fill="#3cffa6" stroke="none" /><path d="M 99.27912038922189 120.98762331915562 l -1.1777715134241722 34.28953255190207 a55.30975354568705,55.30975354568705 0 0,0 -0.9486261149844236,-0.04073808706439042 l 1.7662233890094345 -34.26426189641185" fill="#beff1f" stroke="none" /><path d="M 98.55909050195518 120.95050786540614 l -1.8068321670147012 26.270943163241487 a47.33300395256917,47.33300395256917 0 0,0 -0.8101404376656981,-0.0627099935615441 l 2.257541599455635 -26.23605540268489" fill="#ffc212" stroke="none" /><path d="M 97.84075906011543 120.88869738790638 l -2.8452860131466284 27.52556114179634 a48.67222738897931,48.67222738897931 0 0,0 -0.8303576982187407,-0.09304331204582657 l 3.317379612966169 -27.472662069243544" fill="#ffd914" stroke="none" /><path d="M 97.48249496171623 120.84855314841334 l -4.690752321141417 38.84615823451501 a60.12834224598931,60.12834224598931 0 0,0 -1.0236769469467564,-0.13253547550871808 l 5.356907089978968 -38.75991116280589" fill="#79ff26" stroke="none" /><line stroke="#e1ed5e" stroke-width="0.3" x1="58.13341422392154" x2="55.67067388415222" y1="173.97424548756322" y2="178.32567169271397" /><path d="M 57.64086615596768 174.84453072859336 a86.0,86.0 0 0,1 -31.369924170532247,-30.572349798747897" fill="none" id="id20" stroke="none" /><text fill="#e1ed5e" style="font-size:6.75px; font-family:Arial;" text-anchor="middle"><textPath startOffset="22.145653131862474" xlink:href="#id20">August</textPath></text><line stroke="#e1ed5e" stroke-width="0.3" x1="26.387840678322732" x2="22.057713659400548" y1="142.50000000000003" y2="145.00000000000006" /><path d="M 25.521815274538298 143.00000000000003 a86.0,86.0 0 0,1 -11.493303480769221,-40.785679425670985" fill="none" id="id21" stroke="none" /><text fill="#e1ed5e" style="font-size:6.75px; font-family:Arial;" text-anchor="middle"><textPath startOffset="21.40746469413373" xlink:href="#id21">September</textPath></text><line stroke="#e1ed5e" stroke-width="0.3" x1="15.003131293944662" x2="10.003315487706104" y1="100.72959589197737" y2="100.7725132973878" /><path d="M 14.003168132696942 100.73817937305945 a86.0,86.0 0 0,1 10.791469493833604,-42.45332614584628" fill="none" id="id22" stroke="none" /><text fill="#e1ed5e" style="font-size:6.75px; font-family:Arial;" text-anchor="middle"><textPath startOffset="22.145653131862435" xlink:href="#id22">October</textPath></text><line stroke="#e1ed5e" stroke-width="0.3" x1="26.387840678322718" x2="22.05771365940052" y1="57.49999999999999" y2="54.99999999999999" /><path d="M 25.521815274538284 56.99999999999999 a86.0,86.0 0 0,1 29.574782752854787,-30.34633250058573" fill="none" id="id23" stroke="none" /><text fill="#e1ed5e" style="font-size:6.75px; font-family:Arial;" text-anchor="middle"><textPath startOffset="21.40746469413373" xlink:href="#id23">November</textPath></text><line stroke="#e1ed5e" stroke-width="0.3" x1="56.869717070023135" x2="54.33264160355391" y1="26.7553504044142" y2="22.446841604673864" /><path d="M 56.362301976729285 25.89364864446614 a86.0,86.0 0 0,1 42.16139366436587,-11.88097634709845" fill="none" id="id24" stroke="none" /><text fill="#e1ed5e" style="font-size:6.75px; font-family:Arial;" text-anchor="middle"><textPath startOffset="22.145653131862474" xlink:href="#id24">December</textPath></text></svg>