<?xml version="1.0" encoding="utf-8" ?>
<svg baseProfile="full" height="200mm" version="1.1" viewBox="0,0,200,200" width="200mm" xmlns="http://www.w3.org/2000/svg" xmlns:ev="http://www.w3.org/2001/xml-events" xmlns:xlink="http://www.w3.org/1999/xlink"><defs /><rect fill="#1a1a1a" height="200" width="200" x="0" y="0" /><text alignment-baseline="middle" fill="#e1ed5e" style="dominant-baseline: central; font-size:9.0px; font-family:Arial;" text-anchor="middle" x="100.0" y="100.0">2025</text><line stroke="#e1ed5e" stroke-width="0.3" x1="100.0" x2="100.0" y1="15.0" y2="10.0" /><path d="M 100.0 14.0 a86.0,86.0 0 0,1 42.46469731375804,11.215312516191453" fill="none" id="id25" stroke="none" /><text fill="#e1ed5e" style="font-size:6.75px; font-family:Arial;" text-anchor="middle"><textPath startOffset="22.20632615414155" xlink:href="#id25">January</textPath></text><line stroke="#e1ed5e" stroke-width="0.3" x1="143.23703022742887" x2="145.7803849466894" y1="26.81831364943548" y2="22.513508569990506" /><path d="M 143.74570117128098 25.957352633546492 a86.0,86.0 0 0,1 28.547481713284135,27.462654790039103" fill="none" id="id26" stroke="none" /><text fill="#e1ed5e" style="font-size:6.75px; font-family:Arial;" text-anchor="middle"><textPath startOffset="19.985693538727396" xlink:href="#id26">February</textPath></text><path d="M 112.19680574252982 82.90503203632743 l 21.01646105875897 -29.456542646774746 a57.18534979982357,57.18534979982357 0 0,0 0.796386827852635,0.5786088991782201 l -21.520393202965394 29.09041451277985" fill="#ff940d" stroke="none" /><path d="M 113.06298171725822 83.55741782278167 l 25.119448150540943 -31.618247610036047 a61.38192983646603,61.38192983646603 0 0,0 0.821631041265879,0.6643684947614156 l -25.659982590371314 31.1811730180105" fill="#fffb17" stroke="none" /><path d="M 113.6212207817346 84.01681056812373 l 30.951144039326582 -36.318183681246154 a68.71775123837958,68.71775123837958 0 0,0 0.8936782860119268,0.7749890031774772 l -31.571716123985276 35.780029684649" fill="#65ff29" stroke="none" /><path d="M 113.89432698308785 84.25364557470407 l 27.378527601403807 -31.027915190077273 a62.380131641446695,62.380131641446695 0 0,0 0.7990271430411847,0.7173744583100519 l -27.90856573204098 30.552041722997924" fill="#ecff1a" stroke="none" /><path d="M 115.19652480421416 85.50635884689758 l 25.833164103628487 -24.638304822387294 a56.69871751374092,56.69871751374092 0 0,0 0.6675131319886849,0.7120564681983494 l -26.253444557587635 24.18997893731089" fill="#ff880c" stroke="none" /><path d="M 115.4437574822437 85.77008943001954 l 26.220957858669976 -24.16004562471882 a56.65454298703942,56.65454298703942 0 0,0 0.654646911609395,0.7228774705664157 l -26.632948410895406 23.705115366882854" fill="#ff870c" stroke="none" /><path d="M 115.9244219780498 86.31012108654704 l 39.11408458644622 -33.625527038726574 a72.58088484766233,72.58088484766233 0 0,0 0.8063023856511112,0.9544077037467781 l -39.687097585584446 32.94726038535069" fill="#32ff48" stroke="none" /><path d="M 116.15771136456269 86.58626213691792 l 24.152143909497813 -20.050520765210244 a52.3902761756124,52.3902761756124 0 0,0 0.570059862221944,0.6988259864472666 l -24.493702263796166 19.631810609154876" fill="#ff1502" stroke="none" /><path d="M 116.82858285166822 87.43820079747576 l 36.1123094321202 -26.95625554594739 a66.06371717445884,66.06371717445884 0 0,0 0.6723945865003574,0.9171454603342526 l -36.57096663113418 26.330647641941642" fill="#9bff22" stroke="none" /><path d="M 117.04232023915458 87.72973835380427 l 30.17763912606761 -21.727530215668104 a58.185689081902694,58.185689081902694 0 0,0 0.578219953305147,0.8178511179481615 l -30.54717169917664 21.20485259738815" fill="#ffae10" stroke="none" /><path d="M 117.45458315368197 88.32363383020206 l 30.033561262094754 -20.091162051343634 a57.13405034946054,57.13405034946054 0 0,0 0.5397898964267951,0.8221370451141446 l -30.37494779387947 19.571206942251816" fill="#ff930d" stroke="none" /><line stroke="#e1ed5e" stroke-width="0.3" x1="172.23445277983987" x2="176.4835382374775" y1="55.19839476539836" y2="52.563006222186495" /><path d="M 173.08426987136738 54.67131705675599 a86.0,86.0 0 0,1 12.851231095245387,41.99856678651699" fill="none" id="id27" stroke="none" /><text fill="#e1ed5e" style="font-size:6.75px; font-family:Arial;" text-anchor="middle"><textPath startOffset="22.20632615414155" xlink:href="#id27">March</textPath></text><path d="M 118.56541770881063 90.18545643968196 l 32.66994486276625 -17.270852829594077 a57.9541290629029,57.9541290629029 0 0,0 0.45863950284169563,0.8859455374683977 l -32.96239379876806 16.705934569865335" fill="#ffa80f" stroke="none" /><path d="M 118.89224826269711 90.83032412892265 l 27.545479976967677 -13.36966990851861 a51.618646943068455,51.618646943068455 0 0,0 0.38109753588085926,0.8026886025539162 l -27.771535706690294 12.893538890324153" fill="#ff0000" stroke="none" /><path d="M 119.47837535516314 92.15188598940014 l 40.63006435622682 -16.370429849076434 a64.80403067109995,64.80403067109995 0 0,0 0.4079767070658824,1.0382562193359852 l -40.9058346131744 15.668624624844663" fill="#b6ff1f" stroke="none" /><path d="M 119.61058180528143 92.48833698450437 l 43.26184567962285 -16.571074198634108 a67.3269661396485,67.3269661396485 0 0,0 0.40522950429323884,1.0858136040718311 l -43.54067977241771 15.823937457532942" fill="#81ff25" stroke="none" /><path d="M 120.28053869075195 94.5502522615342 l 60.84161607225586 -16.349243215397394 a84.0,84.0 0 0,0 0.36321467251878925,1.3996142978045985 l -61.11402707664495 15.299532492043943" fill="#4dd2ff" stroke="none" /><line stroke="#e1ed5e" stroke-width="0.3" x1="184.98032266829074" x2="189.97916517819016" y1="98.17113171792111" y2="98.06355123074" /><path d="M 185.9800911702706 98.14961562048488 a86.0,86.0 0 0,1 -9.607161424134198,41.387399972396054" fill="none" id="id28" stroke="none" /><text fill="#e1ed5e" style="font-size:6.75px; font-family:Arial;" text-anchor="middle"><textPath startOffset="21.466115282336823" xlink:href="#id28">April</textPath></text><line stroke="#e1ed5e" stroke-width="0.3" x1="174.80103733775053" x2="179.2010983576182" y1="140.37084112569926" y2="142.7455964860345" /><path d="M 175.68104954172406 140.8457921977663 a86.0,86.0 0 0,1 -30.038265399797805,32.042727171017184" fill="none" id="id29" stroke="none" /><text fill="#e1ed5e" style="font-size:6.75px; font-family:Arial;" text-anchor="middle"><textPath startOffset="22.206326154141568" xlink:href="#id29">May</textPath></text><line stroke="#e1ed5e" stroke-width="0.3" x1="143.8653032363475" x2="146.44561519142675" y1="172.8068346515853" y2="177.08958963109032" /><path d="M 144.38136562736335 173.6633856474863 a86.0,86.0 0 0,1 -40.68145358897372,12.25698825130547" fill="none" id="id30" stroke="none" /><text fill="#e1ed5e" style="font-size:6.75px; font-family:Arial;" text-anchor="middle"><textPath startOffset="21.466115282336833" xlink:href="#id30">June</textPath></text><line stroke="#e1ed5e" stroke-width="0.3" x1="102.19456741930631" x2="102.32365962044197" y1="184.97166512339345" y2="189.96999836594603" /><path d="M 102.22038585953345 185.97133177190398 a86.0,86.0 0 0,1 -42.740103519485714,-10.115201625700543" fill="none" id="id31" stroke="none" /><text fill="#e1ed5e" style="font-size:6.75px; font-family:Arial;" text-anchor="middle"><textPath startOffset="22.20632615414155" xlink:href="#id31">July</textPath></text><line stroke="#e1ed5e" stroke-width="0.3" x1="58.666819895761336" x2="56.23545636021788" y1="174.27360380694188" y2="178.64263932499728" /><path d="M 58.180547188652646 175.14741091055294 a86.0,86.0 0 0,1 -31.652253787137756,-30.449443065178592" fill="none" id="id32" stroke="none" /><text fill="#e1ed5e" style="font-size:6.75px; font-family:Arial;" text-anchor="middle"><textPath startOffset="22.20632615414155" xlink:href="#id32">August</textPath></text><line stroke="#e1ed5e" stroke-width="0.3" x1="26.63291911575756" x2="22.317208475507996" y1="142.92168965132927" y2="145.44649492493687" /><path d="M 25.769776987707644 143.4266507060508 a86.0,86.0 0 0,1 -11.730757126820373,-40.83630448921669" fill="none" id="id33" stroke="none" /><text fill="#e1ed5e" style="font-size:6.75px; font-family:Arial;" text-anchor="middle"><textPath startOffset="21.46611528233685" xlink:href="#id33">September</textPath></text><line stroke="#e1ed5e" stroke-width="0.3" x1="15.007084014347285" x2="10.007500721073583" y1="101.09737516637583" y2="101.16192664675087" /><path d="M 14.007167355692545 101.11028546245083 a86.0,86.0 0 0,1 10.666146001902534,-42.60595125391555" fill="none" id="id34" stroke="none" /><text fill="#e1ed5e" style="font-size:6.75px; font-family:Arial;" text-anchor="middle"><textPath startOffset="22.20632615414155" xlink:href="#id34">October</textPath></text><line stroke="#e1ed5e" stroke-width="0.3" x1="26.266209847984243" x2="21.928928074336255" y1="57.711370442889674" y2="55.22380399835377" /><path d="M 25.398753493254645 57.213857153982495 a86.0,86.0 0 0,1 29.58750427330803,-30.492523968695096" fill="none" id="id35" stroke="none" /><text fill="#e1ed5e" style="font-size:6.75px; font-family:Arial;" text-anchor="middle"><textPath startOffset="21.46611528233685" xlink:href="#id35">November</textPath></text><line stroke="#e1ed5e" stroke-width="0.3" x1="56.762969772571076" x2="54.21961505331055" y1="26.818313649435495" y2="22.513508569990535" /><path d="M 56.25429882871897 25.957352633546506 a86.0,86.0 0 0,1 42.265352541879196,-11.944610805530505" fill="none" id="id36" stroke="none" /><text fill="#e1ed5e" style="font-size:6.75px; font-family:Arial;" text-anchor="middle"><textPath startOffset="22.20632615414155" xlink:href="#id36">December</textPath></text></svg>