<?xml version="1.0" encoding="utf-8" ?>
<svg baseProfile="full" height="200mm" version="1.1" viewBox="0,0,200,200" width="200mm" xmlns="http://www.w3.org/2000/svg" xmlns:ev="http://www.w3.org/2001/xml-events" xmlns:xlink="http://www.w3.org/1999/xlink"><defs /><rect fill="#1a1a1a" height="200" width="200" x="0" y="0" /><text alignment-baseline="middle" fill="#e1ed5e" style="dominant-baseline: central; font-size:9.0px; font-family:Arial;" text-anchor="middle" x="100.0" y="100.0">2023</text><line stroke="#e1ed5e" stroke-width="0.3" x1="100.0" x2="100.0" y1="15.0" y2="10.0" /><path d="M 100.0 14.0 a86.0,86.0 0 0,1 42.46469731375804,11.215312516191453" fill="none" id="id1" stroke="none" /><text fill="#e1ed5e" style="font-size:6.75px; font-family:Arial;" text-anchor="middle"><textPath startOffset="22.20632615414155" xlink:href="#id1">January</textPath></text><path d="M 103.2404852339499 79.25152402106235 l 5.469214687884174 -35.01878928079449 a56.443305601973066,56.443305601973066 0 0,0 0.9586513627238956,0.1581856888912825 l -6.071195256746945 34.91945732896359" fill="#e6ff1a" stroke="none" /><path d="M 109.73455568895987 81.39251694778311 l 15.17243070825221 -29.001914035472947 a53.7309283601562,53.7309283601562 0 0,0 0.8158272696318215,0.43578667354975337 l -15.669403024412341 28.73644863542144" fill="#ffe715" stroke="none" /><path d="M 110.05341064243156 81.56283822128135 l 16.39627574468823 -30.069475845083144 a55.24925161071246,55.24925161071246 0 0,0 0.8310432228867681,0.46247465378507996 l -16.91144305664703 29.782785793737883" fill="#fbff18" stroke="none" /><line stroke="#e1ed5e" stroke-width="0.3" x1="143.23703022742887" x2="145.7803849466894" y1="26.81831364943548" y2="22.513508569990506" /><path d="M 143.74570117128098 25.957352633546492 a86.0,86.0 0 0,1 28.547481713284135,27.462654790039103" fill="none" id="id2" stroke="none" /><text fill="#e1ed5e" style="font-size:6.75px; font-family:Arial;" text-anchor="middle"><textPath startOffset="19.985693538727396" xlink:href="#id2">February</textPath></text><path d="M 110.68208982089419 81.91981866633111 l 19.709370656335988 -33.35948315488113 a59.74679868104766,59.74679868104766 0 0,0 0.880946442557637,0.5307603746639531 l -20.280679165111263 33.01527617075857" fill="#aeff20" stroke="none" /><path d="M 110.99172775467656 82.1063720568725 l 26.727675641057402 -43.51045571540778 a72.06396382710643,72.06396382710643 0 0,0 1.0513818247982585,0.6583752022347156 l -27.472676618227926 43.04393617185012" fill="#37ff78" stroke="none" /><path d="M 111.60114157652 82.49532879139004 l 23.742288215029827 -35.82414249519226 a63.97749917342079,63.97749917342079 0 0,0 0.9127313531412484,0.6162802839859384 l -24.355424262577618 35.41015029890766" fill="#6aff28" stroke="none" /><path d="M 112.19680574252982 82.90503203632743 l 18.678255910050737 -26.17932868162302 a53.1595163841404,53.1595163841404 0 0,0 0.7403214069956842,0.5378749865751268 l -19.12612263340021 25.85393446023122" fill="#ffdc14" stroke="none" /><path d="M 112.48926042617603 83.11751280151076 l 22.230162597238344 -30.04985264632844 a58.37878774339407,58.37878774339407 0 0,0 0.8027190238013338,0.6045913266165515 l -22.74412777479806 29.66274473020604" fill="#c5ff1e" stroke="none" /><path d="M 113.6212207817346 84.01681056812373 l 25.992264553548516 -30.499416666081245 a61.07258705889712,61.07258705889712 0 0,0 0.7942524884985801,0.6887679313319809 l -26.513410840693858 30.047483741329593" fill="#98ff23" stroke="none" /><path d="M 114.16331599549186 84.49514656593476 l 27.056696127286482 -29.619483742165066 a61.11706148855746,61.11706148855746 0 0,0 0.7706340975140762,0.7162204069013427 l -27.562538108595408 29.149358749189084" fill="#97ff23" stroke="none" /><path d="M 114.42810811169701 84.74124197986012 l 34.952903189158604 -36.9651992995786 a71.87368082425587,71.87368082425587 0 0,0 0.8916332475224511,0.8577504776765018 l -35.58401968029347 36.358065735139796" fill="#37ff75" stroke="none" /><path d="M 114.94478906791727 85.2469230424477 l 38.05795029610296 -37.56974200261195 a74.47796831297416,74.47796831297416 0 0,0 0.8927983900553839,0.9201072201461687 l -38.699012949861455 36.90907058691567" fill="#3bffa0" stroke="none" /><path d="M 115.9244219780498 86.31012108654704 l 43.22463047320095 -37.159273854493634 a78.00158167049426,78.00158167049426 0 0,0 0.8665210064259109,1.0256875568133959 l -43.85786209311399 36.409727348051135" fill="#42ffd7" stroke="none" /><path d="M 116.15771136456269 86.58626213691792 l 38.11032157921271 -31.638259404886632 a70.53156638994878,70.53156638994878 0 0,0 0.7674556798245797,0.9408099184838984 l -38.6492757511137 30.97756531679463" fill="#34ff5e" stroke="none" /><path d="M 116.60985879189232 87.15038557335679 l 22.57241026220158 -17.462325970578004 a49.53850965533881,49.53850965533881 0 0,0 0.5159649498601264,0.6789493932843296 l -22.86965115228582 17.071191801412642" fill="#ff970e" stroke="none" /><path d="M 116.82858285166822 87.43820079747576 l 47.708078222914914 -35.61198849938624 a80.53380932381353,80.53380932381353 0 0,0 0.8196707623427457,1.118029998670975 l -48.314011597771284 34.78549605704378" fill="#47fffc" stroke="none" /><path d="M 117.2510076193507 88.02491185347247 l 47.73004354628254 -33.13264310794177 a79.10274603018577,79.10274603018577 0 0,0 0.7668277995316928,1.1252251742321953 l -48.29329581148296 32.306139910439164" fill="#44ffe7" stroke="none" /><line stroke="#e1ed5e" stroke-width="0.3" x1="172.23445277983987" x2="176.4835382374775" y1="55.19839476539836" y2="52.563006222186495" /><path d="M 173.08426987136738 54.67131705675599 a86.0,86.0 0 0,1 12.851231095245387,41.99856678651699" fill="none" id="id3" stroke="none" /><text fill="#e1ed5e" style="font-size:6.75px; font-family:Arial;" text-anchor="middle"><textPath startOffset="22.20632615414155" xlink:href="#id3">March</textPath></text><path d="M 117.84615892207809 88.93136811851018 l 48.307439342641395 -29.96147605519774 a77.8445137480229,77.8445137480229 0 0,0 0.6964644915878262,1.1448045011625656 l -48.81601963251544 29.125503780828094" fill="#42ffd4" stroke="none" /><path d="M 118.21658344932153 89.55222093294921 l 47.38164170034865 -27.174850086273498 a75.62135523246981,75.62135523246981 0 0,0 0.6378926302163103,1.1347398111823805 l -47.842391971857396 26.35522676515632" fill="#3effb2" stroke="none" /><path d="M 118.3937258080291 89.86733742301442 l 32.8906582835879 -18.11867512872544 a58.55105578739489,58.55105578739489 0 0,0 0.4787020029001683,0.8869621091396387 l -33.19766838570653 17.549832036253342" fill="#c2ff1e" stroke="none" /><path d="M 118.73160827565052 90.50648371742162 l 44.89680625991299 -22.754509649783355 a71.33379502622712,71.33379502622712 0 0,0 0.545669519476065,1.1000364540583312 l -45.28183579234247 21.978313607226074" fill="#36ff6b" stroke="none" /><path d="M 118.89224826269711 90.83032412892265 l 52.62048334771831 -25.54025173545516 a79.49119358038371,79.49119358038371 0 0,0 0.5868789631608231,1.2361167692123947 l -53.05232050472089 24.630692550602227" fill="#45ffed" stroke="none" /><path d="M 119.196687751892 91.48605970444005 l 50.847455476217476 -22.55140083022868 a76.62400028595172,76.62400028595172 0 0,0 0.5243609852432548,1.2102974495260277 l -51.228107171303414 21.672804236116047" fill="#3fffc1" stroke="none" /><path d="M 119.34039704204932 91.81776055985345 l 42.02514272324273 -17.779354763001734 a66.63132779897593,66.63132779897593 0 0,0 0.43779420048740575,1.0601533820047429 l -42.324958610616335 17.053326810543687" fill="#42ff2d" stroke="none" /><path d="M 119.7369772167798 92.82701384747503 l 54.30768427882829 -19.736977097817725 a78.78298051060256,78.78298051060256 0 0,0 0.4522402659606645,1.278544131199958 l -54.63937762559876 18.799235340191153" fill="#43ffe2" stroke="none" /><path d="M 119.85752413597 93.16781622104841 l 55.21430482586811 -18.997044909242266 a79.39098537178192,79.39098537178192 0 0,0 0.43348501108830145,1.2960650081403788 l -55.53312713072819 18.043806798179574" fill="#45ffeb" stroke="none" /><path d="M 120.08093135843002 93.85539295169968 l 55.98514926002853 -17.131015320108734 a79.54749032678919,79.54749032678919 0 0,0 0.3893815669122778,1.312801071682372 l -56.27173672405251 16.16478486167983" fill="#45ffee" stroke="none" /><path d="M 120.18372546131832 94.20196356495316 l 30.268283547217237 -8.694956298797765 a52.492399939235256,52.492399939235256 0 0,0 0.24199803613521004,0.870595693107016 l -30.413468353918812 8.172649302271797" fill="#ffd013" stroke="none" /><path d="M 120.45610955862082 95.25157060432595 l 58.530426659924366 -13.586532556294507 a81.08664337351551,81.08664337351551 0 0,0 0.30390352250760505,1.3623399019091922 l -58.75562456943401 12.577014484835352" fill="#48faff" stroke="none" /><path d="M 120.53481517161879 95.60439243477599 l 27.68998909270444 -5.9272179719973215 a49.3172634419652,49.3172634419652 0 0,0 0.17054544736671887,0.8316401693429565 l -27.787913835986156 5.449702146490953" fill="#ff930d" stroke="none" /><path d="M 120.67395015179393 96.31383870115 l 35.06537085670736 -6.252148816882057 a56.618388483294154,56.618388483294154 0 0,0 0.16281328972528464,0.9609332522905205 l -35.167796007952866 5.647629776275698" fill="#e3ff1b" stroke="none" /><path d="M 120.73433829027371 96.67025291283417 l 45.67438976069632 -7.334893650071133 a67.25959948886128,67.25959948886128 0 0,0 0.17373508961446676,1.1446971694034325 l -45.793880743750094 6.547597368275619" fill="#39ff2e" stroke="none" /><path d="M 120.87857604477298 97.74499172005257 l 24.837234810694632 -2.6825665710634863 a45.98168121743948,45.98168121743948 0 0,0 0.07821894376430556,0.7876540892029175 l -24.879730880141164 2.2546369511561335" fill="#ff5007" stroke="none" /><path d="M 120.91429891909075 98.10471618934814 l 50.853328914021056 -4.608401715083099 a72.06171195725022,72.06171195725022 0 0,0 0.10131710678041429,1.236325329541894 l -50.92512050462096 3.732362468333436" fill="#37ff78" stroke="none" /><path d="M 120.98425023603335 99.18683210126433 l 43.788521854026186 -1.6968640720665664 a64.82138740203919,64.82138740203919 0 0,0 0.03360928913535251,1.1153286835088496 l -43.811242837617186 0.9428652411327176" fill="#5dff2a" stroke="none" /><line stroke="#e1ed5e" stroke-width="0.3" x1="184.98032266829074" x2="189.97916517819016" y1="98.17113171792111" y2="98.06355123074" /><path d="M 185.9800911702706 98.14961562048488 a86.0,86.0 0 0,1 -9.607161424134198,41.387399972396054" fill="none" id="id4" stroke="none" /><text fill="#e1ed5e" style="font-size:6.75px; font-family:Arial;" text-anchor="middle"><textPath startOffset="21.466115282336823" xlink:href="#id4">April</textPath></text><path d="M 120.99980553446 99.90962569577887 l 48.6095385099721 -0.20919494774083025 a69.6099886512908,69.6099886512908 0 0,0 -0.0051567832391655995,1.1982548152281285 l -48.60593742944343 -0.627569345690983" fill="#32ff4e" stroke="none" /><path d="M 120.99824983174949 100.27111621757518 l 21.20352819070768 0.2737666428571358 a42.20529546855871,42.20529546855871 0 0,0 -0.01563191154834231,0.7263535052344969 l -21.19567421647433 -0.6387099638817476" fill="#ff0000" stroke="none" /><path d="M 120.9764740272857 100.99374915477107 l 56.59638526123039 2.681223257220739 a77.65986041981287,77.65986041981287 0 0,0 -0.07475186517378804,1.3347447681406501 l -56.54184704516907 -3.6550397416968123" fill="#41ffd1" stroke="none" /><path d="M 120.92983693683757 101.71520430193887 l 58.15325277636591 4.765670637318996 a79.34819984451374,79.34819984451374 0 0,0 -0.1232746216483128,1.360325177580589 l -58.06260355844052 -5.765977203448156" fill="#44ffeb" stroke="none" /><path d="M 120.81339534386255 102.79330883721812 l 49.93786492200751 6.702024205751773 a71.3855880329202,71.3855880329202 0 0,0 -0.17392911216391946,1.2164598053772189 l -49.81510175882699 -7.560629483109401" fill="#36ff6c" stroke="none" /><path d="M 120.76222939487914 103.15116336523771 l 30.06160498317593 4.562565345058533 a51.40587273360916,51.40587273360916 0 0,0 -0.1403092590770169,0.8737058902082311 l -29.978613969737623 -5.079350464959969" fill="#ffbb11" stroke="none" /><path d="M 120.64145759157962 103.86396538481128 l 28.685404490064858 5.369747243243906 a50.1836703691458,50.1836703691458 0 0,0 -0.1662514910051739,0.8477127708953138 l -28.58872306608402 -5.862723741207165" fill="#ffa40f" stroke="none" /><path d="M 120.32669344350535 105.2749913415812 l 50.7955726466594 13.18198686109471 a73.47813809681253,73.47813809681253 0 0,0 -0.3282440705565013,1.2215182963322104 l -50.56114049976112 -14.05439609060247" fill="#3aff8f" stroke="none" /><path d="M 119.41010516605496 108.01547362559984 l 33.04454757710385 13.645866279867679 a56.751248804811134,56.751248804811134 0 0,0 -0.3806360814413714,0.8997112584466342 l -32.80476051447017 -14.212652063980476" fill="#e1ff1b" stroke="none" /><line stroke="#e1ed5e" stroke-width="0.3" x1="174.80103733775053" x2="179.2010983576182" y1="140.37084112569926" y2="142.7455964860345" /><path d="M 175.68104954172406 140.8457921977663 a86.0,86.0 0 0,1 -30.038265399797805,32.042727171017184" fill="none" id="id5" stroke="none" /><text fill="#e1ed5e" style="font-size:6.75px; font-family:Arial;" text-anchor="middle"><textPath startOffset="22.206326154141568" xlink:href="#id5">May</textPath></text><path d="M 115.56566222782051 114.09645910891815 l 23.877817938118582 21.624051662465654 a53.21412422815373,53.21412422815373 0 0,0 -0.6207138511927683,0.6736622929952646 l -23.50205767893009 -22.031865210262254" fill="#ffdd14" stroke="none" /><path d="M 115.07121518719521 114.62390073753431 l 28.40160515782946 27.558644041365927 a60.57436085320847,60.57436085320847 0 0,0 -0.732544134282917,0.7420633405015893 l -27.92302039849101 -28.04344787584818" fill="#a0ff22" stroke="none" /><path d="M 114.81725581225074 114.88116024355365 l 24.245154718087736 24.34972015474771 a55.36184510352346,55.36184510352346 0 0,0 -0.6810826342409138,0.6665827064972579 l -23.82242213147103 -24.76345296416754" fill="#f9ff18" stroke="none" /><path d="M 113.75828350139079 115.86535959552629 l 31.131609565578326 35.89940420223914 a68.51783177102416,68.51783177102416 0 0,0 -0.8976962376330849,0.765036208814878 l -30.509047851368194 -36.42996480127697" fill="#30ff3a" stroke="none" /><path d="M 113.48314897796784 116.09983520530334 l 21.530121499262446 25.708490550293366 a54.533156996434535,54.533156996434535 0 0,0 -0.724849195355569,0.5965015402956584 l -21.084402175362186 -26.075287209446202" fill="#fff617" stroke="none" /><path d="M 112.92097659922987 116.55440617244103 l 29.181568478613144 37.38754061149349 a68.42775697677536,68.42775697677536 0 0,0 -0.9347598881078929,0.7167340219946754 l -28.53367986201176 -37.884313975315536" fill="#30ff39" stroke="none" /><path d="M 112.63410532772338 116.77436683061366 l 25.366883732702238 33.679742415013564 a63.16401118786135,63.16401118786135 0 0,0 -0.8741148085639268,0.6466492382419101 l -24.783383953719746 -34.11140160199524" fill="#76ff27" stroke="none" /><path d="M 111.7513745106137 117.40417183066458 l 26.46918167110925 39.201727900424515 a68.30108929736299,68.30108929736299 0 0,0 -0.980040300424596,0.6495172711572362 l -25.79046667194469 -39.651543192673074" fill="#30ff36" stroke="none" /><line stroke="#e1ed5e" stroke-width="0.3" x1="143.8653032363475" x2="146.44561519142675" y1="172.8068346515853" y2="177.08958963109032" /><path d="M 144.38136562736335 173.6633856474863 a86.0,86.0 0 0,1 -40.68145358897372,12.25698825130547" fill="none" id="id6" stroke="none" /><text fill="#e1ed5e" style="font-size:6.75px; font-family:Arial;" text-anchor="middle"><textPath startOffset="21.466115282336833" xlink:href="#id6">June</textPath></text><path d="M 110.8373102113329 117.98757091392108 l 29.318465153475486 48.66225666254154 a77.81186163510772,77.81186163510772 0 0,0 -1.1532167312352157,0.6813407719021346 l -28.47648055121189 -49.15971600673742" fill="#42ffd4" stroke="none" /><path d="M 110.5260780823613 118.17145234162733 l 22.90252305898488 39.53724293255534 a66.69156531762981,66.69156531762981 0 0,0 -0.9983131330263011,0.5668682513046512 l -22.218561159037378 -39.925614349654616" fill="#41ff2d" stroke="none" /><path d="M 108.92500713936063 119.00905698771935 l 13.68909965787785 29.155929115123485 a53.20962048844129,53.20962048844129 0 0,0 -0.8324315839772666,0.38212851201304243 l -13.185200078133164 -29.3872446974706" fill="#ffdd14" stroke="none" /><path d="M 107.93186726928326 119.44442032107085 l 13.388494662795479 32.820962435662764 a56.44668340675739,56.44668340675739 0 0,0 -0.902821489698434,0.3592513028630816 l -12.821552097055179 -33.04656058293192" fill="#e6ff1a" stroke="none" /><path d="M 107.2578585660854 119.70592522655815 l 15.266621780478213 41.45064339969774 a65.1726790996095,65.1726790996095 0 0,0 -1.056047041854877,0.37866089685509297 l -14.5508551779936 -41.70729183759279" fill="#58ff2a" stroke="none" /><path d="M 106.91757812671514 119.82793768551818 l 12.890740277486376 36.948884459302995 a60.132994361389365,60.132994361389365 0 0,0 -0.980254477096126,0.33255554066684617 l -12.252816067453024 -37.165302986867964" fill="#a7ff21" stroke="none" /><path d="M 106.57524785965236 119.94407469862006 l 13.643226545357122 41.3827030035617 a64.57368171785501,64.57368171785501 0 0,0 -1.0586352516356599,0.3389415769743479 l -12.92886994863052 -41.611417427195754" fill="#61ff29" stroke="none" /><path d="M 105.88484417918355 120.15858648285463 l 11.5932066631618 39.712633336941984 a62.37022706354384,62.37022706354384 0 0,0 -1.033174192078357,0.2919853467794072 l -10.907901302978836 -39.906307477059904" fill="#83ff25" stroke="none" /><path d="M 104.83641907484287 120.43548508189849 l 5.11266980738324 21.60273664474528 a43.1994960100798,43.1994960100798 0 0,0 -0.7250929476160275,0.16502879417744717 l -4.74005671037435 -21.687542172500414" fill="#ff1502" stroke="none" /><path d="M 104.13013068566511 120.58985236759428 l 8.375226092802924 41.75283590772517 a63.58454788351042,63.58454788351042 0 0,0 -1.0749797005458281,0.20602241808285857 l -7.655278777685392 -41.8908155241565" fill="#70ff27" stroke="none" /><path d="M 102.70371172650421 120.8252237178851 l 4.538689928296718 34.95906468738094 a56.252459631658425,56.252459631658425 0 0,0 -0.9613078641767363,0.11640099481867894 l -3.936254641068602 -35.03201121092497" fill="#eaff1a" stroke="none" /><path d="M 102.34483914955558 120.86867818915974 l 3.64351381378844 32.42666656777708 a53.630720151554414,53.630720151554414 0 0,0 -0.9182789898602858,0.09518337191528177 l -3.0848022273225517 -32.48457930814812" fill="#ffe515" stroke="none" /><path d="M 101.62511606390274 120.93702456842531 l 4.391024191893886 56.57133261328391 a77.74149070210085,77.74149070210085 0 0,0 -1.3350703133207669,0.0920742654063368 l -3.4165911177941894 -56.63853522320653" fill="#41ffd3" stroke="none" /><path d="M 101.26447882468166 120.96189622390904 l 2.4125289200656064 39.993695325286325 a61.06639441679251,61.06639441679251 0 0,0 -1.0497950954014557,0.05426241524537827 l -1.723745756250671 -40.02929754729391" fill="#98ff23" stroke="none" /><line stroke="#e1ed5e" stroke-width="0.3" x1="102.19456741930631" x2="102.32365962044197" y1="184.97166512339345" y2="189.96999836594603" /><path d="M 102.22038585953345 185.97133177190398 a86.0,86.0 0 0,1 -42.740103519485714,-10.115201625700543" fill="none" id="id7" stroke="none" /><text fill="#e1ed5e" style="font-size:6.75px; font-family:Arial;" text-anchor="middle"><textPath startOffset="22.20632615414155" xlink:href="#id7">July</textPath></text><path d="M 99.45781275523022 120.99299961872073 l -0.7696106344549069 29.79862752495315 a50.808564254246825,50.808564254246825 0 0,0 -0.8741000107471713,-0.030105771747445675 l 1.2824309968767211 -29.78096495477961" fill="#ffb010" stroke="none" /><path d="M 99.09653310690486 120.98055641714683 l -1.5728302046531075 36.52469514435463 a57.558544148265966,57.558544148265966 0 0,0 -0.9894914858225224,-0.05114540744252268 l 2.201309758889119 -36.492209930149905" fill="#d3ff1c" stroke="none" /><path d="M 98.73552117531835 120.96189622390904 l -2.4972064139861043 41.39743638082329 a62.47268714200184,62.47268714200184 0 0,0 -1.0728560675053893,-0.07399043579703674 l 3.2094252422704237 -41.348317600509965" fill="#81ff25" stroke="none" /><path d="M 97.2962882734958 120.8252237178851 l -7.303406525894056 56.25417581076934 a77.72629058057136,77.72629058057136 0 0,0 -1.3253124938098537,-0.18367623536709068 l 8.270647610890741 -56.12012500990965" fill="#41ffd2" stroke="none" /><path d="M 96.93821686468263 120.77559828337769 l -6.599412574167475 44.78003127186324 a66.26371004494803,66.26371004494803 0 0,0 -1.1270009891571187,-0.176014376560371 l 7.369249426933111 -44.659798587955756" fill="#47ff2c" stroke="none" /><path d="M 94.81253420990036 120.34920634021253 l -8.242131120867118 32.33193887884716 a54.365955659610215,54.365955659610215 0 0,0 -0.9048295756533608,-0.23897371479809182 l 8.797451139331969 -32.185273814745486" fill="#fff316" stroke="none" /><path d="M 93.76903079525671 120.05430185196036 l -10.120933206557122 32.5741057094805 a55.11019864709088,55.11019864709088 0 0,0 -0.9034888124757869,-0.2892685865184247 l 10.68014336412385 -32.39506427630237" fill="#feff18" stroke="none" /><path d="M 92.40401165467489 119.57807347666478 l -15.482832580449065 39.90580555241191 a63.804105194491854,63.804105194491854 0 0,0 -1.0204978188970484,-0.40607714281386265 l 16.16745147538797 -39.63338156519198" fill="#6cff28" stroke="none" /><path d="M 92.06813273071674 119.44442032107085 l -17.825171829735748 43.697167588132494 a68.19299954426442,68.19299954426442 0 0,0 -1.0830624576423207,-0.45272019513345774 l 18.57470574687553 -43.38386234997907" fill="#30ff35" stroke="none" /><path d="M 91.40352486487194 119.15986991738527 l -13.613153315891298 30.341069170557663 a54.25505106919138,54.25505106919138 0 0,0 -0.848786698452498,-0.38963634290091254 l 14.133408010111216 -30.102245757322677" fill="#fff116" stroke="none" /><line stroke="#e1ed5e" stroke-width="0.3" x1="58.666819895761336" x2="56.23545636021788" y1="174.27360380694188" y2="178.64263932499728" /><path d="M 58.180547188652646 175.14741091055294 a86.0,86.0 0 0,1 -31.652253787137756,-30.449443065178592" fill="none" id="id8" stroke="none" /><text fill="#e1ed5e" style="font-size:6.75px; font-family:Arial;" text-anchor="middle"><textPath startOffset="22.20632615414155" xlink:href="#id8">August</textPath></text><path d="M 87.07902340077011 116.55440617244103 l -17.386112891377987 22.27515639808053 a49.25702592331132,49.25702592331132 0 0,0 -0.6638967675533393,-0.5274397441487063 l 17.766967151648682 -21.972582739926693" fill="#ff920d" stroke="none" /><path d="M 85.44109423537348 115.13401014063109 l -24.275944659065242 25.234890491312775 a56.01601329675533,56.01601329675533 0 0,0 -0.6891304620445182,-0.6744591998463121 l 24.706725073485554 -24.813281188543893" fill="#eeff19" stroke="none" /><path d="M 85.18274418774928 114.88116024355367 l -22.70076096439856 22.798665680221468 a53.17302760327772,53.17302760327772 0 0,0 -0.6430375644777755,-0.6513936578462718 l 23.08983915393187 -22.404531528394532" fill="#ffdd14" stroke="none" /><line stroke="#e1ed5e" stroke-width="0.3" x1="26.63291911575756" x2="22.317208475507996" y1="142.92168965132927" y2="145.44649492493687" /><path d="M 25.769776987707644 143.4266507060508 a86.0,86.0 0 0,1 -11.730757126820373,-40.83630448921669" fill="none" id="id9" stroke="none" /><text fill="#e1ed5e" style="font-size:6.75px; font-family:Arial;" text-anchor="middle"><textPath startOffset="21.46611528233685" xlink:href="#id9">September</textPath></text><path d="M 81.18737489456691 109.33194174019688 l -34.47084434279405 17.099150668209944 a59.47882616815748,59.47882616815748 0 0,0 -0.44707328623918535,-0.9211033883859922 l 34.760070885647956 -16.503258323858667" fill="#b2ff20" stroke="none" /><path d="M 80.20201598880116 107.00284435728193 l -39.03461794360425 13.80713075888945 a62.404568078851185,62.404568078851185 0 0,0 -0.3494928284333532,-1.0157897533939833 l 39.26650160298084 -13.13316830240617" fill="#82ff25" stroke="none" /><path d="M 80.0844068197444 106.66101706037122 l -44.69249390438122 14.9479587011628 a68.12600641604189,68.12600641604189 0 0,0 -0.3623906106661236,-1.1153236164740203 l 44.943176766063594 -14.176436184710978" fill="#30ff33" stroke="none" /><path d="M 79.86692584326677 105.97154293290107 l -43.34601013166475 12.856584069384894 a66.21248000571904,66.21248000571904 0 0,0 -0.314690144504875,-1.095477676489928 l 43.560892913055724 -12.108548917390369" fill="#48ff2c" stroke="none" /><path d="M 79.35854240842038 103.8639653848113 l -45.75033994539984 8.564207692604437 a67.54502399313715,67.54502399313715 0 0,0 -0.20409390831663857,-1.1446670247825097 l 45.890980296055666 -7.775421917088714" fill="#34ff2f" stroke="none" /><path d="M 79.1416061653843 102.43462659150553 l -30.061607699503373 3.5088410962476595 a51.26569383505947,51.26569383505947 0 0,0 -0.09476267841089152,-0.8773847107356679 l 30.11755267941532 -2.9908600636272094" fill="#ffb911" stroke="none" /><line stroke="#e1ed5e" stroke-width="0.3" x1="15.007084014347285" x2="10.007500721073583" y1="101.09737516637583" y2="101.16192664675087" /><path d="M 14.007167355692545 101.11028546245083 a86.0,86.0 0 0,1 10.666146001902534,-42.60595125391555" fill="none" id="id10" stroke="none" /><text fill="#e1ed5e" style="font-size:6.75px; font-family:Arial;" text-anchor="middle"><textPath startOffset="22.20632615414155" xlink:href="#id10">October</textPath></text><path d="M 79.21141760316559 97.0276538004421 l -37.3279396893841 -5.337139279394185 a58.70756074240217,58.70756074240217 0 0,0 0.1516447228966429,-0.9991492532680813 l 37.23053907304816 5.978887645054358" fill="#bfff1e" stroke="none" /><path d="M 79.32604984820605 96.31383870115002 l -46.170411806554 -8.232175462535768 a67.89856756056369,67.89856756056369 0 0,0 0.21505828899277366,-1.148849979197947 l 46.02186779365137 9.025703519196288" fill="#2fff2f" stroke="none" /><path d="M 79.3925641242962 95.95851677861259 l -36.04307877537267 -7.06868622551705 a57.729686257338685,57.729686257338685 0 0,0 0.19963668869592366,-0.9734993936082239 l 35.91606279076175 7.6880612752886766" fill="#d0ff1d" stroke="none" /><path d="M 79.62865764111835 94.90015583598534 l -46.49017497571829 -11.638538264051487 a68.9248572475359,68.9248572475359 0 0,0 0.29802999349484244,-1.148431139021291 l 46.28294865035314 12.437065828621643" fill="#31ff42" stroke="none" /><path d="M 79.91906864156998 93.8553929516997 l -38.60519441608904 -11.81288584060228 a61.372085749774364,61.372085749774364 0 0,0 0.3178037035712154,-1.0075245880142158 l 38.39613522874962 12.475660595042912" fill="#93ff23" stroke="none" /><path d="M 80.02781315780177 93.51064311812611 l -55.188856009005704 -17.93194632988773 a79.02899729239459,79.02899729239459 0 0,0 0.4315085095261541,-1.290155520043421 l 54.87201020570778 18.87927495285347" fill="#44ffe6" stroke="none" /><path d="M 80.65960295795068 91.81776055985345 l -35.75312802306301 -15.125886691099536 a59.82111038630291,59.82111038630291 0 0,0 0.4093737766684871,-0.9448911184245784 l 35.48746353655184 15.739076954110715" fill="#acff20" stroke="none" /><path d="M 81.43458229118936 90.18545643968196 l -50.14987046188941 -26.511554758013176 a77.72629058057136,77.72629058057136 0 0,0 0.6354749795464613,-1.177438625176469 l 49.68608738312447 27.370874366522116" fill="#41ffd2" stroke="none" /><line stroke="#e1ed5e" stroke-width="0.3" x1="26.266209847984243" x2="21.928928074336255" y1="57.711370442889674" y2="55.22380399835377" /><path d="M 25.398753493254645 57.213857153982495 a86.0,86.0 0 0,1 29.58750427330803,-30.492523968695096" fill="none" id="id11" stroke="none" /><text fill="#e1ed5e" style="font-size:6.75px; font-family:Arial;" text-anchor="middle"><textPath startOffset="21.46611528233685" xlink:href="#id11">November</textPath></text><path d="M 83.17141714833178 87.43820079747576 l -33.30226873058283 -24.85868337633751 a62.557132261610086,62.557132261610086 0 0,0 0.651559520771273,-0.8573759543864556 l 32.869433269587454 25.428244106604993" fill="#80ff25" stroke="none" /><path d="M 83.39014120810768 87.1503855733568 l -23.45183168661616 -18.142658438411654 a50.65037039684738,50.65037039684738 0 0,0 0.5394166026504211,-0.6850043067523831 l 23.13606100337177 18.543655139117085" fill="#ffad10" stroke="none" /><path d="M 84.31358615837235 86.03803664274999 l -33.15051004753567 -29.506183582226313 a65.37985112638172,65.37985112638172 0 0,0 0.7554684119710838,-0.8342070894307314 l 32.63769799494854 30.072443458926603" fill="#54ff2b" stroke="none" /><path d="M 84.5562425177563 85.77008943001954 l -33.301365412823294 -30.68394801119801 a66.28228797126185,66.28228797126185 0 0,0 0.7803403600505001,-0.8324126884437091 l 32.76825773080234 31.252630116519768" fill="#47ff2c" stroke="none" /><path d="M 85.05521093208273 85.24692304244772 l -40.61683493540493 -40.09580120877114 a78.07364150589328,78.07364150589328 0 0,0 0.9523653287800569,-0.9482755693975706 l 39.92063380645756 40.789012628818824" fill="#42ffd8" stroke="none" /><path d="M 85.31137513191541 84.99185889309783 l -40.745980506579244 -41.63231279127695 a79.25362131055252,79.25362131055252 0 0,0 0.9831855407521014,-0.9458237112266283 l 40.023311722214714 42.3275195892659" fill="#44ffe9" stroke="none" /><path d="M 85.83668400450813 84.49514656593479 l -41.047506384068065 -44.935491838310085 a81.86128660405514,81.86128660405514 0 0,0 1.0485612684641872,-0.9414086599191179 l 40.26793412800791 45.63539950699848" fill="#49efff" stroke="none" /><path d="M 86.10567301691215 84.25364557470407 l -33.6270102595777 -38.10928175613568 a71.824139687419,71.824139687419 0 0,0 0.9340770454997391,-0.8100224093093172 l 32.96603941543119 38.68246915886468" fill="#37ff74" stroke="none" /><path d="M 86.65592168130627 83.78471172551755 l -36.72969272802983 -44.632723339446635 a78.80268437184446,78.80268437184446 0 0,0 1.0548174648057063,-0.8529223655685304 l 35.95597186465963 45.2583518022793" fill="#43ffe3" stroke="none" /><path d="M 86.93701828274178 83.55741782278169 l -35.564457118668024 -44.765545984748776 a78.17328674703103,78.17328674703103 0 0,0 1.0608019894805223,-0.8279727789518863 l 34.788622574028075 45.37109715292389" fill="#42ffd9" stroke="none" /><path d="M 87.51073957382395 83.11751280151077 l -33.622133233587476 -45.44906700097816 a77.53375570786457,77.53375570786457 0 0,0 1.0797671427355573,-0.7844967495402195 l 32.83482077449814 46.02108298533505" fill="#41ffcf" stroke="none" /><path d="M 88.70189139769569 82.29822771554957 l -31.232318698180165 -48.93450868385245 a79.05207895842082,79.05207895842082 0 0,0 1.1533353789532097,-0.7222185084933122 l 30.385364166854714 49.46487153366869" fill="#44ffe6" stroke="none" /><line stroke="#e1ed5e" stroke-width="0.3" x1="56.762969772571076" x2="54.21961505331055" y1="26.818313649435495" y2="22.513508569990535" /><path d="M 56.25429882871897 25.957352633546506 a86.0,86.0 0 0,1 42.265352541879196,-11.944610805530505" fill="none" id="id12" stroke="none" /><text fill="#e1ed5e" style="font-size:6.75px; font-family:Arial;" text-anchor="middle"><textPath startOffset="22.20632615414155" xlink:href="#id12">December</textPath></text><path d="M 90.26544431104013 81.39251694778311 l -15.467841639826721 -29.566588385114414 a54.368207529466424,54.368207529466424 0 0,0 0.8329714562477825,-0.42668033267700006 l 14.956609695990174 29.82846124310392" fill="#fff316" stroke="none" /><path d="M 90.58718382345135 81.22770947309562 l -25.342611492407705 -50.54160802919035 a77.53938538250512,77.53938538250512 0 0,0 1.1982742140464133,-0.587987952784798 l 24.46886601135087 50.970351142109976" fill="#41ffd0" stroke="none" /><path d="M 92.57280143429618 80.3572730644239 l -13.778682168510512 -36.440508352356986 a59.958474447532325,59.958474447532325 0 0,0 0.9685225834436543,-0.3567150411806099 l 13.149377259294289 36.67228666134392" fill="#aaff21" stroke="none" /><path d="M 95.692805502759 79.44645832069477 l -6.590172698817761 -31.44770669765071 a53.13080504347359,53.13080504347359 0 0,0 0.8967305714028535,-0.1798757166201884 l 6.047875717947771 31.556486370348107" fill="#ffdc14" stroke="none" /><path d="M 96.04723909329186 79.375362276772 l -7.315541156042336 -38.17088603479207 a59.86558481596325,59.86558481596325 0 0,0 1.0137378113611943,-0.18525410537724038 l 6.657408223578249 38.29115562152005" fill="#acff21" stroke="none" /><path d="M 96.75951476605007 79.25152402106235 l -9.72145570184976 -62.24542793681294 a84.0,84.0 0 0,0 1.430524078285405,-0.2108220633561242 l 8.648562643135705 62.403544484330034" fill="#4dd2ff" stroke="none" /><path d="M 98.55514903715128 79.0497635885617 l -2.207501212828704 -32.008610906217434 a53.084641711421085,53.084641711421085 0 0,0 0.9121406358681845,-0.055022814103592985 l 1.6561985281208969 32.04186698970133" fill="#ffdb14" stroke="none" /></svg>