<?xml version="1.0" encoding="utf-8" ?>
<svg baseProfile="full" height="200mm" version="1.1" viewBox="0,0,200,200" width="200mm" xmlns="http://www.w3.org/2000/svg" xmlns:ev="http://www.w3.org/2001/xml-events" xmlns:xlink="http://www.w3.org/1999/xlink"><defs /><rect fill="#1a1a1a" height="200" width="200" x="0" y="0" /><text alignment-baseline="middle" fill="#e1ed5e" style="dominant-baseline: central; font-size:9.0px; font-family:Arial;" text-anchor="middle" x="100.0" y="100.0">2025</text><line stroke="#e1ed5e" stroke-width="0.3" x1="100.0" x2="100.0" y1="15.0" y2="10.0" /><path d="M 100.0 14.0 a86.0,86.0 0 0,1 42.46469731375804,11.215312516191453" fill="none" id="id25" stroke="none" /><text fill="#e1ed5e" style="font-size:6.75px; font-family:Arial;" text-anchor="middle"><textPath startOffset="22.20632615414155" xlink:href="#id25">January</textPath></text><line stroke="#e1ed5e" stroke-width="0.3" x1="143.23703022742887" x2="145.7803849466894" y1="26.81831364943548" y2="22.513508569990506" /><path d="M 143.74570117128098 25.957352633546492 a86.0,86.0 0 0,1 28.547481713284135,27.462654790039103" fill="none" id="id26" stroke="none" /><text fill="#e1ed5e" style="font-size:6.75px; font-family:Arial;" text-anchor="middle"><textPath startOffset="19.985693538727396" xlink:href="#id26">February</textPath></text><path d="M 112.19680574252982 82.90503203632743 l 18.42983893741655 -25.831148979620725 a52.73180141225008,52.73180141225008 0 0,0 0.7343648714340207,0.533547310170002 l -18.87174912520436 25.510082434634047" fill="#ff760a" stroke="none" /><path d="M 113.06298171725822 83.55741782278167 l 22.027846758639438 -27.726799926358773 a56.411883132338936,56.411883132338936 0 0,0 0.7551042204322659,0.6105750989442443 l -22.501854377636192 27.3435187301504" fill="#ffc912" stroke="none" /><path d="M 113.6212207817346 84.01681056812373 l 27.141800799799032 -31.84828662987095 a62.844840923516344,62.844840923516344 0 0,0 0.8173007513938062,0.708755157793367 l -27.6859953498396 31.376366478657914" fill="#b1ff20" stroke="none" /><path d="M 113.89432698308785 84.25364557470407 l 24.008887729801327 -27.209123263815187 a57.28723024436687,57.28723024436687 0 0,0 0.7337921660377797,0.658805851851242 l -24.473690883435097 26.791818403194647" fill="#ffdc14" stroke="none" /><path d="M 115.19652480421416 85.50635884689758 l 22.653721401648667 -21.605920630406317 a52.30506188511583,52.30506188511583 0 0,0 0.6157866916360883,0.6568783081519537 l -23.022275415255216 21.21277290537631" fill="#ff6c09" stroke="none" /><path d="M 115.4437574822437 85.77008943001954 l 22.993787049540988 -21.18652366539281 a52.26632418279911,52.26632418279911 0 0,0 0.6039407592657184,0.6668864706879613 l -23.35507144942274 20.787584407435297" fill="#ff6b09" stroke="none" /><path d="M 115.9244219780498 86.31012108654704 l 34.30007921396727 -29.487031416795084 a66.23251547127896,66.23251547127896 0 0,0 0.7357782334047469,0.8709293519497819 l -34.80256806085914 28.892243115216196" fill="#72ff27" stroke="none" /><path d="M 116.15771136456269 86.58626213691792 l 21.179594461734528 -17.58278271879384 a48.526886305934624,48.526886305934624 0 0,0 0.5280222236067965,0.647292812091436 l -21.479115177417732 17.215605737094304" fill="#ff1101" stroke="none" /><path d="M 116.82858285166822 87.43820079747576 l 31.667750561398485 -23.63858723305855 a60.5174547762615,60.5174547762615 0 0,0 0.6159448895810903,0.8401481371758177 l -32.0699580634932 23.08997665221124" fill="#dfff1b" stroke="none" /><path d="M 117.04232023915458 87.72973835380427 l 26.463495783135816 -19.05339254135399 a53.60902292922882,53.60902292922882 0 0,0 0.5327393595225873,0.753522043419696 l -26.787547762462285 18.5950439976025" fill="#ff8a0c" stroke="none" /><path d="M 117.45458315368197 88.32363383020206 l 26.33715044744667 -17.61842203768553 a52.68681569343066,52.68681569343066 0 0,0 0.49777340504064416,0.7581430461472546 l -26.63652048784524 17.162460927560602" fill="#ff750a" stroke="none" /><line stroke="#e1ed5e" stroke-width="0.3" x1="172.23445277983987" x2="176.4835382374775" y1="55.19839476539836" y2="52.563006222186495" /><path d="M 173.08426987136738 54.67131705675599 a86.0,86.0 0 0,1 12.851231095245387,41.99856678651699" fill="none" id="id27" stroke="none" /><text fill="#e1ed5e" style="font-size:6.75px; font-family:Arial;" text-anchor="middle"><textPath startOffset="22.20632615414155" xlink:href="#id27">March</textPath></text><path d="M 118.56541770881063 90.18545643968196 l 28.64905848000156 -15.145225215193268 a53.40596239289115,53.40596239289115 0 0,0 0.42264605536686134,0.8164176534312498 l -28.90551396852854 14.649834839501672" fill="#ff850c" stroke="none" /><path d="M 118.89224826269711 90.83032412892265 l 24.15529227351869 -11.724184313025953 a47.850226118692476,47.850226118692476 0 0,0 0.3532754991677359,0.7440882977321017 l -24.35352596652818 11.30665359965331" fill="#ff0000" stroke="none" /><path d="M 119.47837535516314 92.15188598940014 l 35.62947824605569 -14.355622700284 a59.41280545858457,59.41280545858457 0 0,0 0.3740360048213618,0.9518808342130454 l -35.87130780075875 13.740192861175169" fill="#f6ff19" stroke="none" /><path d="M 119.61058180528143 92.48833698450437 l 37.93735043124813 -14.53157254434728 a61.62522810218978,61.62522810218978 0 0,0 0.3709117173646421,0.9938589968334004 l -38.1818667371144 13.876390410484547" fill="#c9ff1d" stroke="none" /><path d="M 120.28053869075195 94.5502522615342 l 53.35347286913885 -14.337043632893016 a76.24621152015234,76.24621152015234 0 0,0 0.3296874136677437,1.2704200928218916 l -53.592356614676895 13.416527114522273" fill="#3cffa8" stroke="none" /><path d="M 120.83666639777658 97.38593545837742 l 40.941594501018415 -5.13632883588434 a62.26252578546493,62.26252578546493 0 0,0 0.12425716556065611,1.0645595119515001 l -41.02394201958266 4.4308255856079874" fill="#bcff1f" stroke="none" /><path d="M 120.87857604477298 97.74499172005257 l 39.0982561538219 -4.2228402535357175 a60.32564066962869,60.32564066962869 0 0,0 0.10261929903715143,1.0333623368951017 l -39.16515257854128 3.549202385936181" fill="#e3ff1b" stroke="none" /><line stroke="#e1ed5e" stroke-width="0.3" x1="184.98032266829074" x2="189.97916517819016" y1="98.17113171792111" y2="98.06355123074" /><path d="M 185.9800911702706 98.14961562048488 a86.0,86.0 0 0,1 -9.607161424134198,41.387399972396054" fill="none" id="id28" stroke="none" /><text fill="#e1ed5e" style="font-size:6.75px; font-family:Arial;" text-anchor="middle"><textPath startOffset="21.466115282336823" xlink:href="#id28">April</textPath></text><path d="M 120.99980553446 99.90962569577887 l 41.19591532195987 -0.17728984098758954 a62.19629681053633,62.19629681053633 0 0,0 -0.004607568930048879,1.0706367518018705 l -41.19286345574032 -0.5318563890179656" fill="#beff1f" stroke="none" /><path d="M 120.95626037817324 101.35467743843564 l 40.62166732480853 2.6259101215344467 a61.70645231672485,61.70645231672485 0 0,0 -0.07764270584870588,1.0593730338885912 l -40.57044806029548 -3.324756291919808" fill="#c7ff1e" stroke="none" /><path d="M 120.89721153311464 102.0752229133903 l 51.86335083841315 5.150352900171531 a73.11845445890194,73.11845445890194 0 0,0 -0.13515667237593923,1.2513829271727965 l -51.76701186453616 -6.042332149229119" fill="#36ff6d" stroke="none" /><path d="M 120.8583938346157 102.4346265915055 l 40.79935097595426 4.76216843875 a62.076334893684546,62.076334893684546 0 0,0 -0.13301625627157254,1.0602704383464057 l -40.71133321043584 -5.4637566313838" fill="#c0ff1e" stroke="none" /><path d="M 120.76222939487914 103.15116336523771 l 44.50849390153421 6.75522521001588 a66.01820850523643,66.01820850523643 0 0,0 -0.18019275674908664,1.1220604682839808 l -44.385619390423834 -7.5203649079930655" fill="#76ff27" stroke="none" /><path d="M 120.49622156327973 104.57218783832717 l 34.39833185719266 7.673396488744412 a56.24381148841638,56.24381148841638 0 0,0 -0.21892082480818217,0.9431051835833462 l -34.26115046645392 -8.264370329676323" fill="#ffc512" stroke="none" /><path d="M 120.32669344350535 105.2749913415812 l 60.980080330516046 15.82497402474362 a84.0,84.0 0 0,0 -0.3752476946328911,1.396436267297807 l -60.69864455954138 -16.872301225216972" fill="#4dd2ff" stroke="none" /><path d="M 119.79798401119884 107.00284435728193 l 59.31796603894861 20.981655684049546 a83.91940058711518,83.91940058711518 0 0,0 -0.49342904778535507,1.3577048201617787 l -58.948012730158034 -21.999608301217457" fill="#4dd3ff" stroke="none" /><path d="M 119.67450827220406 107.3425965602758 l 47.01007869027002 17.544328799166585 a71.17719573151379,71.17719573151379 0 0,0 -0.4382675509798746,1.1441782789458859 l -46.70111685969664 -18.350930644945617" fill="#32ff46" stroke="none" /><path d="M 119.41010516605496 108.01547362559984 l 40.97235425225923 16.91968292176265 a65.32842748333863,65.32842748333863 0 0,0 -0.4381640433941736,1.0356903670178168 l -40.67503922767275 -17.62244781444663" fill="#82ff25" stroke="none" /><path d="M 118.97047184881838 109.00673069616215 l 56.704838486692324 26.922114193528646 a83.77132259600127,83.77132259600127 0 0,0 -0.6296681171836666,1.2973028229340613 l -56.23301711289394 -27.894205972427983" fill="#4dd6ff" stroke="none" /><path d="M 118.81262510543309 109.33194174019688 l 42.56069106212393 21.11209292633778 a68.50929268486195,68.50929268486195 0 0,0 -0.5331371305981889,1.0519301374029117 l -42.19097526173947 -21.841577275443388" fill="#4aff2c" stroke="none" /><path d="M 118.64920377521936 109.65438752849418 l 37.83588162782275 19.587016589019903 a63.605224531894635,63.605224531894635 0 0,0 -0.5117115784979095,0.9679654629746945 l -37.49311754109995 -20.235397067080733" fill="#a3ff22" stroke="none" /><line stroke="#e1ed5e" stroke-width="0.3" x1="174.80103733775053" x2="179.2010983576182" y1="140.37084112569926" y2="142.7455964860345" /><path d="M 175.68104954172406 140.8457921977663 a86.0,86.0 0 0,1 -30.038265399797805,32.042727171017184" fill="none" id="id29" stroke="none" /><text fill="#e1ed5e" style="font-size:6.75px; font-family:Arial;" text-anchor="middle"><textPath startOffset="22.206326154141568" xlink:href="#id29">May</textPath></text><path d="M 117.14729908036423 112.12312394758627 l 34.97500064823777 24.72729179903533 a63.8332771342431,63.8332771342431 0 0,0 -0.6420418118876434,0.8917399221481737 l -34.54417904397452 -25.32566532663464" fill="#9eff22" stroke="none" /><path d="M 116.0416608686014 113.55231037782055 l 31.773408660282414 26.84280009735807 a62.594295461758165,62.594295461758165 0 0,0 -0.702419742081101,0.8170728499008358 l -31.306646408630534 -27.385750046420434" fill="#b6ff1f" stroke="none" /><path d="M 115.80600337817218 113.82643327865902 l 24.598751131746774 21.517962708468428 a53.68212472231038,53.68212472231038 0 0,0 -0.6143820766229264,0.6902647761055342 l -24.224710205475507 -21.93820165431483" fill="#ff8c0c" stroke="none" /><path d="M 115.56566222782051 114.09645910891815 l 28.838742242203207 26.116726986614644 a59.90702356394795,59.90702356394795 0 0,0 -0.6987828861082845,0.7583908115744015 l -28.384912948099203 -26.60926905299038" fill="#ecff1a" stroke="none" /><line stroke="#e1ed5e" stroke-width="0.3" x1="143.8653032363475" x2="146.44561519142675" y1="172.8068346515853" y2="177.08958963109032" /><path d="M 144.38136562736335 173.6633856474863 a86.0,86.0 0 0,1 -40.68145358897372,12.25698825130547" fill="none" id="id30" stroke="none" /><text fill="#e1ed5e" style="font-size:6.75px; font-family:Arial;" text-anchor="middle"><textPath startOffset="21.466115282336833" xlink:href="#id30">June</textPath></text><path d="M 109.89434966115114 118.52300852407294 l 15.126779911285642 28.318533590809086 a53.10543279911139,53.10543279911139 0 0,0 -0.810007297658248,0.4237575348256853 l -14.637081711100898 -28.57472054457949" fill="#ff7e0b" stroke="none" /><path d="M 109.57404056367764 118.69057910512821 l 16.5313425533471 32.272723689883634 a57.26036377340527,57.26036377340527 0 0,0 -0.8811172760971208,0.441810493929697 l -15.973371369567216 -32.552502024722635" fill="#ffdb14" stroke="none" /><path d="M 107.93186726928326 119.44442032107085 l 14.505282699138043 35.558690545698376 a59.40343343383053,59.40343343383053 0 0,0 -0.9501124429130297,0.3780693491212133 l -13.891049180183147 -35.803106739225655" fill="#f6ff19" stroke="none" /><path d="M 102.70371172650421 120.8252237178851 l 5.010173678847833 38.590648072666525 a59.91452118375119,59.91452118375119 0 0,0 -1.0238894578026407,0.12397875427207951 l -4.345156797993813 -38.671172355663955" fill="#ebff1a" stroke="none" /><line stroke="#e1ed5e" stroke-width="0.3" x1="102.19456741930631" x2="102.32365962044197" y1="184.97166512339345" y2="189.96999836594603" /><path d="M 102.22038585953345 185.97133177190398 a86.0,86.0 0 0,1 -42.740103519485714,-10.115201625700543" fill="none" id="id31" stroke="none" /><text fill="#e1ed5e" style="font-size:6.75px; font-family:Arial;" text-anchor="middle"><textPath startOffset="22.20632615414155" xlink:href="#id31">July</textPath></text><line stroke="#e1ed5e" stroke-width="0.3" x1="58.666819895761336" x2="56.23545636021788" y1="174.27360380694188" y2="178.64263932499728" /><path d="M 58.180547188652646 175.14741091055294 a86.0,86.0 0 0,1 -31.652253787137756,-30.449443065178592" fill="none" id="id32" stroke="none" /><text fill="#e1ed5e" style="font-size:6.75px; font-family:Arial;" text-anchor="middle"><textPath startOffset="22.20632615414155" xlink:href="#id32">August</textPath></text><path d="M 86.51685102203217 116.09983520530335 l -20.216299173219486 24.13969360434967 a52.486879165344334,52.486879165344334 0 0,0 -0.6876644040530777,-0.5860425236946846 l 20.62882905384962 -23.788126690432033" fill="#ff700a" stroke="none" /><path d="M 83.06392112726016 112.41649034213515 l -26.530312462173473 19.450391730911544 a53.896431688352905,53.896431688352905 0 0,0 -0.5420959757822756,-0.7529238973076723 l 26.861188230331358 -18.990834228152732" fill="#ff910d" stroke="none" /><line stroke="#e1ed5e" stroke-width="0.3" x1="26.63291911575756" x2="22.317208475507996" y1="142.92168965132927" y2="145.44649492493687" /><path d="M 25.769776987707644 143.4266507060508 a86.0,86.0 0 0,1 -11.730757126820373,-40.83630448921669" fill="none" id="id33" stroke="none" /><text fill="#e1ed5e" style="font-size:6.75px; font-family:Arial;" text-anchor="middle"><textPath startOffset="21.46611528233685" xlink:href="#id33">September</textPath></text><path d="M 81.69416730710424 110.29060199501025 l -30.713538873109055 17.26557921203441 a56.23381466201206,56.23381466201206 0 0,0 -0.46707161255171886,-0.8478706469021812 l 31.00618689511229 -16.734338046734404" fill="#ffc512" stroke="none" /><path d="M 81.51974371655577 109.97397251340807 l -28.228430188591734 15.235155967501496 a53.077316724849254,53.077316724849254 0 0,0 -0.427013310991266,-0.807748260227612 l 28.486496007807887 -14.746992692187758" fill="#ff7e0b" stroke="none" /><line stroke="#e1ed5e" stroke-width="0.3" x1="15.007084014347285" x2="10.007500721073583" y1="101.09737516637583" y2="101.16192664675087" /><path d="M 14.007167355692545 101.11028546245083 a86.0,86.0 0 0,1 10.666146001902534,-42.60595125391555" fill="none" id="id34" stroke="none" /><text fill="#e1ed5e" style="font-size:6.75px; font-family:Arial;" text-anchor="middle"><textPath startOffset="22.20632615414155" xlink:href="#id34">October</textPath></text><path d="M 79.3925641242962 95.95851677861259 l -41.08529865610853 -8.057554863490866 a62.86795858457632,62.86795858457632 0 0,0 0.21740549603804254,-1.06014640867188 l 40.940513864155484 8.763576928326149" fill="#b1ff20" stroke="none" /><path d="M 79.46518482838121 95.60439243477599 l -30.674531854613555 -6.566078299365332 a52.369416455093614,52.369416455093614 0 0,0 0.19627462021160585,-0.8798606368231722 l 30.55696284739991 7.093117105738463" fill="#ff6d0a" stroke="none" /><path d="M 79.81627453868168 94.20196356495316 l -42.121956969015315 -12.100077445557687 a64.82546215487147,64.82546215487147 0 0,0 0.31731786792995265,-1.0698381034977533 l 41.90743320397365 12.82334493580198" fill="#8cff24" stroke="none" /><path d="M 80.02781315780177 93.51064311812611 l -39.4254200830937 -12.81009551725352 a62.45433989209775,62.45433989209775 0 0,0 0.34100874417740384,-1.0195727406782145 l 39.19907404514453 13.486841360854058" fill="#b9ff1f" stroke="none" /><path d="M 80.14247586403 93.16781622104843 l -32.60976807020184 -11.219723411592506 a55.48592708663916,55.48592708663916 0 0,0 0.31850750327170907,-0.9004636024307914 l 32.411807486120324 11.779384640449909" fill="#ffb410" stroke="none" /><path d="M 80.38941819471856 92.48833698450439 l -33.63197664689877 -12.882436514376337 a57.01481672484925,57.01481672484925 0 0,0 0.35893935825420503,-0.913461515369581 l 33.40524373876288 13.459447034641682" fill="#ffd614" stroke="none" /><path d="M 81.26839172434947 90.50648371742162 l -29.168007646066368 -14.782871360717962 a53.700243970168195,53.700243970168195 0 0,0 0.42497495165916294,-0.8209163397951871 l 28.90922326124709 15.282760422773485" fill="#ff8c0c" stroke="none" /><path d="M 81.43458229118936 90.18545643968196 l -41.065160290695935 -21.70895429372474 a67.4502538876547,67.4502538876547 0 0,0 0.551460109436576,-1.0217718305102748 l 40.68539208204089 22.41260710756749" fill="#5cff2a" stroke="none" /><line stroke="#e1ed5e" stroke-width="0.3" x1="26.266209847984243" x2="21.928928074336255" y1="57.711370442889674" y2="55.22380399835377" /><path d="M 25.398753493254645 57.213857153982495 a86.0,86.0 0 0,1 29.58750427330803,-30.492523968695096" fill="none" id="id35" stroke="none" /><text fill="#e1ed5e" style="font-size:6.75px; font-family:Arial;" text-anchor="middle"><textPath startOffset="21.46611528233685" xlink:href="#id35">November</textPath></text><path d="M 83.84228863543731 86.58626213691792 l -24.870652097914867 -20.647008737698883 a53.3241133767058,53.3241133767058 0 0,0 0.59237855695213,-0.7011893656161738 l 24.511562927475612 21.07205705294417" fill="#ff840c" stroke="none" /><line stroke="#e1ed5e" stroke-width="0.3" x1="56.762969772571076" x2="54.21961505331055" y1="26.818313649435495" y2="22.513508569990535" /><path d="M 56.25429882871897 25.957352633546506 a86.0,86.0 0 0,1 42.265352541879196,-11.944610805530505" fill="none" id="id36" stroke="none" /><text fill="#e1ed5e" style="font-size:6.75px; font-family:Arial;" text-anchor="middle"><textPath startOffset="22.20632615414155" xlink:href="#id36">December</textPath></text></svg>