<?xml version="1.0" encoding="utf-8" ?>
<svg baseProfile="full" height="200mm" version="1.1" viewBox="0,0,200,200" width="200mm" xmlns="http://www.w3.org/2000/svg" xmlns:ev="http://www.w3.org/2001/xml-events" xmlns:xlink="http://www.w3.org/1999/xlink"><defs /><rect fill="#1a1a1a" height="200" width="200" x="0" y="0" /><text alignment-baseline="middle" fill="#e1ed5e" style="dominant-baseline: central; font-size:9.0px; font-family:Arial;" text-anchor="middle" x="100.0" y="100.0">2024</text><line stroke="#e1ed5e" stroke-width="0.3" x1="100.0" x2="100.0" y1="15.0" y2="10.0" /><path d="M 100.0 14.0 a86.0,86.0 0 0,1 42.35913384403234,11.155469271406648" fill="none" id="id13" stroke="none" /><text fill="#e1ed5e" style="font-size:6.75px; font-family:Arial;" text-anchor="middle"><textPath startOffset="22.145653131862478" xlink:href="#id13">January</textPath></text><path d="M 100.72087961077811 79.0123766808444 l 1.8412455750994143 -53.60585594387545 a74.63746803069054,74.63746803069054 0 0,0 1.2801187275539698,0.05497380617304466 l -2.76119006325422 53.56634956927657" fill="#38ff85" stroke="none" /><path d="M 101.08105385017728 79.02784411241856 l 2.7002468059647726 -52.38406665898335 a73.45361543827016,73.45361543827016 0 0,0 1.2586999224643654,0.07572026170782083 l -3.5990910805616005 52.32999441945084" fill="#36ff6d" stroke="none" /><path d="M 101.80034050326958 79.07731436759882 l 4.8360642908973555 -56.20239764242832 a77.4100790513834,77.4100790513834 0 0,0 1.3229767223781985,0.12528727110292745 l -5.800140576660567 56.11109861582021" fill="#3fffba" stroke="none" /><path d="M 102.15924093988457 79.11130261209362 l 5.50903355918983 -53.29490229278861 a74.5788770053476,74.5788770053476 0 0,0 1.272330196664092,0.1425672523630399 l -6.423099657454719 53.19247927991861" fill="#38ff84" stroke="none" /><path d="M 102.87502721639298 79.19773525538626 l 5.017283936057905 -36.30256720411791 a57.64764008370146,57.64764008370146 0 0,0 0.9791174256581227,0.14389654381142641 l -5.63972646732371 36.211089587007606" fill="#ffd313" stroke="none" /><path d="M 103.23170211078529 79.25015418208739 l 8.221132656474005 -52.78556909720544 a74.42193675889328,74.42193675889328 0 0,0 1.2606455795952378,0.20743875039049206 l -9.126055739122314 52.63666434831928" fill="#38ff81" stroke="none" /><path d="M 103.94208987418118 79.37332000966035 l 9.874505010094152 -51.6675827814617 a73.60270867240176,73.60270867240176 0 0,0 1.2389912471492923,0.2478329494034923 l -10.7599927427744 51.49046043539534" fill="#36ff70" stroke="none" /><path d="M 104.29559338865022 79.4440306129975 l 8.564399064850868 -40.98374987267279 a62.86904208323646,62.86904208323646 0 0,0 1.0545161644223413,0.2298268899647588 l -9.266677645892344 40.83069152457431" fill="#bdff1f" stroke="none" /><path d="M 104.9986988182912 79.60360301121754 l 12.517957520834672 -51.07753844848377 a73.58910718437573,73.58910718437573 0 0,0 1.2243640250709515,0.3112285473347604 l -13.392926839131018 50.855124669313746" fill="#36ff70" stroke="none" /><path d="M 105.3480935250658 79.69241777938227 l 12.04240310552441 -45.72696607736497 a68.28609625668449,68.28609625668449 0 0,0 1.1310083016970818,0.30826134199805905 l -12.825592808156186 45.51350424122277" fill="#56ff2b" stroke="none" /><path d="M 106.04205211174951 79.88797359093562 l 8.024377824933605 -26.71054399175731 a48.889851197395956,48.889851197395956 0 0,0 0.8016989627302593,0.24836838796969052 l -8.481717420535496 26.56885901598097" fill="#ff0000" stroke="none" /><path d="M 106.72888874123014 80.10723608172694 l 16.89385332886383 -49.9436755257722 a73.72355266217158,73.72355266217158 0 0,0 1.1953544831335499,0.4158063397104604 l -17.7487135840424 49.64631075349315" fill="#36ff73" stroke="none" /><path d="M 107.40779381753099 80.34994680014964 l 16.721236258863012 -44.355065779009244 a68.40223203906069,68.40223203906069 0 0,0 1.0951775104231538,0.4236381881241951 l -17.48018603177969 44.06148770274701" fill="#54ff2b" stroke="none" /><path d="M 107.74402155503746 80.48000691201159 l 19.8767378248402 -50.102363764761144 a74.90112764473378,74.90112764473378 0 0,0 1.1910903537506796,0.48440607765408594 l -20.733882639781317 49.753770430527766" fill="#39ff8a" stroke="none" /><path d="M 108.73861861582097 80.90454125486305 l 15.904796724410717 -34.75485120164404 a59.22122762148338,59.22122762148338 0 0,0 0.9207809141332803,0.43097196076829986 l -16.499066352415504 34.476703009305204" fill="#fff517" stroke="none" /><path d="M 109.71004243097381 81.37971332152246 l 18.129288126325843 -34.76530041847112 a60.208381771681005,60.208381771681005 0 0,0 0.9123324030067398,0.4857656172741269 l -18.723409345119144 34.448964333474414" fill="#f4ff19" stroke="none" /><path d="M 110.02825361518725 81.54914285379988 l 25.711993267916085 -47.307171610808965 a74.84305975354569,74.84305975354569 0 0,0 1.1235575982612163,0.623218459960256 l -26.520295054333403 46.858820235415564" fill="#39ff89" stroke="none" /><line stroke="#e1ed5e" stroke-width="0.3" x1="143.13028292997686" x2="145.6673583964461" y1="26.7553504044142" y2="22.446841604673864" /><path d="M 143.63769802327073 25.89364864446614 a86.0,86.0 0 0,1 29.32050498858742,28.57503671076993" fill="none" id="id14" stroke="none" /><text fill="#e1ed5e" style="font-size:6.75px; font-family:Arial;" text-anchor="middle"><textPath startOffset="20.669276256404974" xlink:href="#id14">February</textPath></text><path d="M 110.65571695917076 81.90426304109057 l 16.37245407192745 -27.80400637447873 a53.26639153685189,53.26639153685189 0 0,0 0.7839474666870109,0.470737929105315 l -16.847334295171894 27.51885444483749" fill="#ff6d0a" stroke="none" /><path d="M 111.5731344415666 82.4767994020092 l 28.985691120547703 -43.88803072679098 a73.59590792838875,73.59590792838875 0 0,0 1.04822901153583,0.7052952599357385 l -29.734816420180533 43.38398579279812" fill="#36ff70" stroke="none" /><path d="M 111.8722381534696 82.67804972795209 l 35.6167144604088 -51.965850816143735 a84.0,84.0 0 0,0 1.182419635304957,0.8254207367794932 l -36.50352918688752 51.34678526355911" fill="#4dd2ff" stroke="none" /><line stroke="#e1ed5e" stroke-width="0.3" x1="172.87174338648825" x2="177.1583165268699" y1="56.24261187166439" y2="53.66864786411523" /><path d="M 173.72905801456457 55.72781907015455 a86.0,86.0 0 0,1 12.242430191666344,42.057860355516425" fill="none" id="id15" stroke="none" /><text fill="#e1ed5e" style="font-size:6.75px; font-family:Arial;" text-anchor="middle"><textPath startOffset="22.145653131862474" xlink:href="#id15">March</textPath></text><line stroke="#e1ed5e" stroke-width="0.3" x1="184.99686870605535" x2="189.99668451229388" y1="99.2704041080226" y2="99.22748670261217" /><path d="M 185.99683186730306 99.26182062694052 a86.0,86.0 0 0,1 -10.086455211305974,41.156179273409016" fill="none" id="id16" stroke="none" /><text fill="#e1ed5e" style="font-size:6.75px; font-family:Arial;" text-anchor="middle"><textPath startOffset="21.40746469413373" xlink:href="#id16">April</textPath></text><line stroke="#e1ed5e" stroke-width="0.3" x1="174.33088141563837" x2="178.70328620479359" y1="141.23008692659167" y2="143.65538615756765" /><path d="M 175.20536237346943 141.71514677278685 a86.0,86.0 0 0,1 -30.301960400862466,31.631185727798858" fill="none" id="id17" stroke="none" /><text fill="#e1ed5e" style="font-size:6.75px; font-family:Arial;" text-anchor="middle"><textPath startOffset="22.145653131862474" xlink:href="#id17">May</textPath></text><line stroke="#e1ed5e" stroke-width="0.3" x1="143.1302829299769" x2="145.66735839644613" y1="173.24464959558577" y2="177.55315839532614" /><path d="M 143.63769802327073 174.10635135553383 a86.0,86.0 0 0,1 -40.68552437913181,11.842963189579606" fill="none" id="id18" stroke="none" /><text fill="#e1ed5e" style="font-size:6.75px; font-family:Arial;" text-anchor="middle"><textPath startOffset="21.407464694133747" xlink:href="#id18">June</textPath></text><line stroke="#e1ed5e" stroke-width="0.3" x1="101.45913802915013" x2="101.54496967792366" y1="184.9874750549273" y2="189.98673829345242" /><path d="M 101.47630435890484 185.9873277026323 a86.0,86.0 0 0,1 -42.54439059252881,-10.42667462771756" fill="none" id="id19" stroke="none" /><text fill="#e1ed5e" style="font-size:6.75px; font-family:Arial;" text-anchor="middle"><textPath startOffset="22.145653131862474" xlink:href="#id19">July</textPath></text><line stroke="#e1ed5e" stroke-width="0.3" x1="58.13341422392154" x2="55.67067388415222" y1="173.97424548756322" y2="178.32567169271397" /><path d="M 57.64086615596768 174.84453072859336 a86.0,86.0 0 0,1 -31.369924170532247,-30.572349798747897" fill="none" id="id20" stroke="none" /><text fill="#e1ed5e" style="font-size:6.75px; font-family:Arial;" text-anchor="middle"><textPath startOffset="22.145653131862474" xlink:href="#id20">August</textPath></text><line stroke="#e1ed5e" stroke-width="0.3" x1="26.387840678322732" x2="22.057713659400548" y1="142.50000000000003" y2="145.00000000000006" /><path d="M 25.521815274538298 143.00000000000003 a86.0,86.0 0 0,1 -11.493303480769221,-40.785679425670985" fill="none" id="id21" stroke="none" /><text fill="#e1ed5e" style="font-size:6.75px; font-family:Arial;" text-anchor="middle"><textPath startOffset="21.40746469413373" xlink:href="#id21">September</textPath></text><line stroke="#e1ed5e" stroke-width="0.3" x1="15.003131293944662" x2="10.003315487706104" y1="100.72959589197737" y2="100.7725132973878" /><path d="M 14.003168132696942 100.73817937305945 a86.0,86.0 0 0,1 10.791469493833604,-42.45332614584628" fill="none" id="id22" stroke="none" /><text fill="#e1ed5e" style="font-size:6.75px; font-family:Arial;" text-anchor="middle"><textPath startOffset="22.145653131862435" xlink:href="#id22">October</textPath></text><line stroke="#e1ed5e" stroke-width="0.3" x1="26.387840678322718" x2="22.05771365940052" y1="57.49999999999999" y2="54.99999999999999" /><path d="M 25.521815274538284 56.99999999999999 a86.0,86.0 0 0,1 29.574782752854787,-30.34633250058573" fill="none" id="id23" stroke="none" /><text fill="#e1ed5e" style="font-size:6.75px; font-family:Arial;" text-anchor="middle"><textPath startOffset="21.40746469413373" xlink:href="#id23">November</textPath></text><line stroke="#e1ed5e" stroke-width="0.3" x1="56.869717070023135" x2="54.33264160355391" y1="26.7553504044142" y2="22.446841604673864" /><path d="M 56.362301976729285 25.89364864446614 a86.0,86.0 0 0,1 42.16139366436587,-11.88097634709845" fill="none" id="id24" stroke="none" /><text fill="#e1ed5e" style="font-size:6.75px; font-family:Arial;" text-anchor="middle"><textPath startOffset="22.145653131862474" xlink:href="#id24">December</textPath></text></svg>